M48
; DRILL file {KiCad 8.0.6} date 2024-12-19T08:29:33+0800
; FORMAT={-:-/ absolute / inch / decimal}
; #@! TF.CreationDate,2024-12-19T08:29:33+08:00
; #@! TF.GenerationSoftware,Kicad,Pcbnew,8.0.6
; #@! TF.FileFunction,Plated,1,2,PTH
FMAT,2
INCH
; #@! TA.AperFunction,Plated,PTH,ViaDrill
T1C0.0394
; #@! TA.AperFunction,Plated,PTH,ComponentDrill
T2C0.1693
%
G90
G05
T1
X1.8701Y-1.0307
X1.8701Y-1.2626
X1.8701Y-1.4945
X1.8701Y-1.7362
X1.8701Y-1.9681
X1.8701Y-2.2
X1.8701Y-2.4319
X1.8701Y-2.6835
X1.8701Y-2.9252
X1.8701Y-3.1669
X1.8701Y-3.3988
X1.8701Y-3.6201
X1.8701Y-3.8453
X1.8701Y-4.0665
X1.8701Y-4.2929
X1.8701Y-4.5193
X1.8701Y-4.7543
X1.8701Y-4.9819
X1.8701Y-5.2083
X2.36Y-1.0307
X2.36Y-1.2626
X2.36Y-1.4945
X2.36Y-1.7362
X2.36Y-1.9681
X2.36Y-2.2
X2.36Y-2.4319
X2.36Y-2.6835
X2.36Y-2.9252
X2.36Y-3.1669
X2.36Y-3.3988
X2.36Y-3.6201
X2.36Y-3.8453
X2.36Y-4.0665
X2.36Y-4.2929
X2.36Y-4.5193
X2.36Y-4.7543
X2.36Y-4.9819
X2.36Y-5.2083
X2.845Y-1.0307
X2.845Y-1.2626
X2.845Y-1.4945
X2.845Y-1.7362
X2.845Y-1.9681
X2.845Y-2.2
X2.845Y-2.4319
X2.845Y-2.6835
X2.845Y-2.9252
X2.845Y-3.1669
X2.845Y-3.3988
X2.845Y-3.6201
X2.845Y-3.8453
X2.845Y-4.0665
X2.845Y-4.2929
X2.845Y-4.5193
X2.845Y-4.7543
X2.845Y-4.9819
X2.845Y-5.2083
X3.335Y-1.0307
X3.335Y-1.2626
X3.335Y-1.4945
X3.335Y-1.7362
X3.335Y-1.9681
X3.335Y-2.2
X3.335Y-2.4319
X3.335Y-2.6835
X3.335Y-2.9252
X3.335Y-3.1669
X3.335Y-3.3988
X3.335Y-3.6201
X3.335Y-3.8453
X3.335Y-4.0665
X3.335Y-4.2929
X3.335Y-4.5193
X3.335Y-4.7543
X3.335Y-4.9819
X3.335Y-5.2083
X3.83Y-1.0307
X3.83Y-1.2626
X3.83Y-1.4945
X3.83Y-1.7362
X3.83Y-1.9681
X3.83Y-2.2
X3.83Y-2.4319
X3.83Y-2.6835
X3.83Y-2.9252
X3.83Y-3.1669
X3.83Y-3.3988
X3.83Y-3.6201
X3.83Y-3.8453
X3.83Y-4.0665
X3.83Y-4.2929
X3.83Y-4.5193
X3.83Y-4.7543
X3.83Y-4.9819
X3.83Y-5.2083
X4.32Y-1.0307
X4.32Y-1.2626
X4.32Y-1.4945
X4.32Y-1.7362
X4.32Y-1.9681
X4.32Y-2.2
X4.32Y-2.4319
X4.32Y-2.6835
X4.32Y-2.9252
X4.32Y-3.1669
X4.32Y-3.3988
X4.32Y-3.6201
X4.32Y-3.8453
X4.32Y-4.0665
X4.32Y-4.2929
X4.32Y-4.5193
X4.32Y-4.7543
X4.32Y-4.9819
X4.32Y-5.2083
X4.805Y-1.0307
X4.805Y-1.2626
X4.805Y-1.4945
X4.805Y-1.7362
X4.805Y-1.9681
X4.805Y-2.2
X4.805Y-2.4319
X4.805Y-2.6835
X4.805Y-2.9252
X4.805Y-3.1669
X4.805Y-3.3988
X4.805Y-3.6201
X4.805Y-3.8453
X4.805Y-4.0665
X4.805Y-4.2929
X4.805Y-4.5193
X4.805Y-4.7543
X4.805Y-4.9819
X4.805Y-5.2083
X5.3Y-1.0307
X5.3Y-1.2626
X5.3Y-1.4945
X5.3Y-1.7362
X5.3Y-1.9681
X5.3Y-2.2
X5.3Y-2.4319
X5.3Y-2.6835
X5.3Y-2.9252
X5.3Y-3.1669
X5.3Y-3.3988
X5.3Y-3.6201
X5.3Y-3.8453
X5.3Y-4.0665
X5.3Y-4.2929
X5.3Y-4.5193
X5.3Y-4.7543
X5.3Y-4.9819
X5.3Y-5.2083
T2
X2.4771Y-5.7552
X2.9671Y-5.7502
X4.1871Y-5.7602
X4.6444Y-5.7552
M30
