%TF.GenerationSoftware,KiCad,Pcbnew,8.0.6*%
%TF.CreationDate,2024-12-18T12:33:32+08:00*%
%TF.ProjectId,dummyload,64756d6d-796c-46f6-9164-2e6b69636164,rev?*%
%TF.SameCoordinates,Original*%
%TF.FileFunction,Copper,L1,Top*%
%TF.FilePolarity,Positive*%
%FSLAX46Y46*%
G04 Gerber Fmt 4.6, Leading zero omitted, Abs format (unit mm)*
G04 Created by KiCad (PCBNEW 8.0.6) date 2024-12-18 12:33:32*
%MOMM*%
%LPD*%
G01*
G04 APERTURE LIST*
G04 Aperture macros list*
%AMRoundRect*
0 Rectangle with rounded corners*
0 $1 Rounding radius*
0 $2 $3 $4 $5 $6 $7 $8 $9 X,Y pos of 4 corners*
0 Add a 4 corners polygon primitive as box body*
4,1,4,$2,$3,$4,$5,$6,$7,$8,$9,$2,$3,0*
0 Add four circle primitives for the rounded corners*
1,1,$1+$1,$2,$3*
1,1,$1+$1,$4,$5*
1,1,$1+$1,$6,$7*
1,1,$1+$1,$8,$9*
0 Add four rect primitives between the rounded corners*
20,1,$1+$1,$2,$3,$4,$5,0*
20,1,$1+$1,$4,$5,$6,$7,0*
20,1,$1+$1,$6,$7,$8,$9,0*
20,1,$1+$1,$8,$9,$2,$3,0*%
G04 Aperture macros list end*
%ADD10C,0.300000*%
%TA.AperFunction,NonConductor*%
%ADD11C,0.300000*%
%TD*%
%TA.AperFunction,NonConductor*%
%ADD12C,0.200000*%
%TD*%
%TA.AperFunction,ComponentPad*%
%ADD13C,4.700000*%
%TD*%
%TA.AperFunction,ConnectorPad*%
%ADD14C,7.500000*%
%TD*%
%TA.AperFunction,SMDPad,CuDef*%
%ADD15RoundRect,0.250000X-0.362500X-1.425000X0.362500X-1.425000X0.362500X1.425000X-0.362500X1.425000X0*%
%TD*%
%TA.AperFunction,ViaPad*%
%ADD16C,2.000000*%
%TD*%
%TA.AperFunction,Conductor*%
%ADD17C,5.000000*%
%TD*%
G04 APERTURE END LIST*
D10*
D11*
X84374897Y-18963909D02*
X83517754Y-18963909D01*
X83946325Y-18963909D02*
X83946325Y-17463909D01*
X83946325Y-17463909D02*
X83803468Y-17678195D01*
X83803468Y-17678195D02*
X83660611Y-17821052D01*
X83660611Y-17821052D02*
X83517754Y-17892481D01*
X85303468Y-17463909D02*
X85446325Y-17463909D01*
X85446325Y-17463909D02*
X85589182Y-17535338D01*
X85589182Y-17535338D02*
X85660611Y-17606766D01*
X85660611Y-17606766D02*
X85732039Y-17749623D01*
X85732039Y-17749623D02*
X85803468Y-18035338D01*
X85803468Y-18035338D02*
X85803468Y-18392481D01*
X85803468Y-18392481D02*
X85732039Y-18678195D01*
X85732039Y-18678195D02*
X85660611Y-18821052D01*
X85660611Y-18821052D02*
X85589182Y-18892481D01*
X85589182Y-18892481D02*
X85446325Y-18963909D01*
X85446325Y-18963909D02*
X85303468Y-18963909D01*
X85303468Y-18963909D02*
X85160611Y-18892481D01*
X85160611Y-18892481D02*
X85089182Y-18821052D01*
X85089182Y-18821052D02*
X85017753Y-18678195D01*
X85017753Y-18678195D02*
X84946325Y-18392481D01*
X84946325Y-18392481D02*
X84946325Y-18035338D01*
X84946325Y-18035338D02*
X85017753Y-17749623D01*
X85017753Y-17749623D02*
X85089182Y-17606766D01*
X85089182Y-17606766D02*
X85160611Y-17535338D01*
X85160611Y-17535338D02*
X85303468Y-17463909D01*
X86732039Y-17463909D02*
X86874896Y-17463909D01*
X86874896Y-17463909D02*
X87017753Y-17535338D01*
X87017753Y-17535338D02*
X87089182Y-17606766D01*
X87089182Y-17606766D02*
X87160610Y-17749623D01*
X87160610Y-17749623D02*
X87232039Y-18035338D01*
X87232039Y-18035338D02*
X87232039Y-18392481D01*
X87232039Y-18392481D02*
X87160610Y-18678195D01*
X87160610Y-18678195D02*
X87089182Y-18821052D01*
X87089182Y-18821052D02*
X87017753Y-18892481D01*
X87017753Y-18892481D02*
X86874896Y-18963909D01*
X86874896Y-18963909D02*
X86732039Y-18963909D01*
X86732039Y-18963909D02*
X86589182Y-18892481D01*
X86589182Y-18892481D02*
X86517753Y-18821052D01*
X86517753Y-18821052D02*
X86446324Y-18678195D01*
X86446324Y-18678195D02*
X86374896Y-18392481D01*
X86374896Y-18392481D02*
X86374896Y-18035338D01*
X86374896Y-18035338D02*
X86446324Y-17749623D01*
X86446324Y-17749623D02*
X86517753Y-17606766D01*
X86517753Y-17606766D02*
X86589182Y-17535338D01*
X86589182Y-17535338D02*
X86732039Y-17463909D01*
X87874895Y-18821052D02*
X87946324Y-18892481D01*
X87946324Y-18892481D02*
X87874895Y-18963909D01*
X87874895Y-18963909D02*
X87803467Y-18892481D01*
X87803467Y-18892481D02*
X87874895Y-18821052D01*
X87874895Y-18821052D02*
X87874895Y-18963909D01*
X88874896Y-17463909D02*
X89017753Y-17463909D01*
X89017753Y-17463909D02*
X89160610Y-17535338D01*
X89160610Y-17535338D02*
X89232039Y-17606766D01*
X89232039Y-17606766D02*
X89303467Y-17749623D01*
X89303467Y-17749623D02*
X89374896Y-18035338D01*
X89374896Y-18035338D02*
X89374896Y-18392481D01*
X89374896Y-18392481D02*
X89303467Y-18678195D01*
X89303467Y-18678195D02*
X89232039Y-18821052D01*
X89232039Y-18821052D02*
X89160610Y-18892481D01*
X89160610Y-18892481D02*
X89017753Y-18963909D01*
X89017753Y-18963909D02*
X88874896Y-18963909D01*
X88874896Y-18963909D02*
X88732039Y-18892481D01*
X88732039Y-18892481D02*
X88660610Y-18821052D01*
X88660610Y-18821052D02*
X88589181Y-18678195D01*
X88589181Y-18678195D02*
X88517753Y-18392481D01*
X88517753Y-18392481D02*
X88517753Y-18035338D01*
X88517753Y-18035338D02*
X88589181Y-17749623D01*
X88589181Y-17749623D02*
X88660610Y-17606766D01*
X88660610Y-17606766D02*
X88732039Y-17535338D01*
X88732039Y-17535338D02*
X88874896Y-17463909D01*
X90303467Y-17463909D02*
X90446324Y-17463909D01*
X90446324Y-17463909D02*
X90589181Y-17535338D01*
X90589181Y-17535338D02*
X90660610Y-17606766D01*
X90660610Y-17606766D02*
X90732038Y-17749623D01*
X90732038Y-17749623D02*
X90803467Y-18035338D01*
X90803467Y-18035338D02*
X90803467Y-18392481D01*
X90803467Y-18392481D02*
X90732038Y-18678195D01*
X90732038Y-18678195D02*
X90660610Y-18821052D01*
X90660610Y-18821052D02*
X90589181Y-18892481D01*
X90589181Y-18892481D02*
X90446324Y-18963909D01*
X90446324Y-18963909D02*
X90303467Y-18963909D01*
X90303467Y-18963909D02*
X90160610Y-18892481D01*
X90160610Y-18892481D02*
X90089181Y-18821052D01*
X90089181Y-18821052D02*
X90017752Y-18678195D01*
X90017752Y-18678195D02*
X89946324Y-18392481D01*
X89946324Y-18392481D02*
X89946324Y-18035338D01*
X89946324Y-18035338D02*
X90017752Y-17749623D01*
X90017752Y-17749623D02*
X90089181Y-17606766D01*
X90089181Y-17606766D02*
X90160610Y-17535338D01*
X90160610Y-17535338D02*
X90303467Y-17463909D01*
X91732038Y-17463909D02*
X91874895Y-17463909D01*
X91874895Y-17463909D02*
X92017752Y-17535338D01*
X92017752Y-17535338D02*
X92089181Y-17606766D01*
X92089181Y-17606766D02*
X92160609Y-17749623D01*
X92160609Y-17749623D02*
X92232038Y-18035338D01*
X92232038Y-18035338D02*
X92232038Y-18392481D01*
X92232038Y-18392481D02*
X92160609Y-18678195D01*
X92160609Y-18678195D02*
X92089181Y-18821052D01*
X92089181Y-18821052D02*
X92017752Y-18892481D01*
X92017752Y-18892481D02*
X91874895Y-18963909D01*
X91874895Y-18963909D02*
X91732038Y-18963909D01*
X91732038Y-18963909D02*
X91589181Y-18892481D01*
X91589181Y-18892481D02*
X91517752Y-18821052D01*
X91517752Y-18821052D02*
X91446323Y-18678195D01*
X91446323Y-18678195D02*
X91374895Y-18392481D01*
X91374895Y-18392481D02*
X91374895Y-18035338D01*
X91374895Y-18035338D02*
X91446323Y-17749623D01*
X91446323Y-17749623D02*
X91517752Y-17606766D01*
X91517752Y-17606766D02*
X91589181Y-17535338D01*
X91589181Y-17535338D02*
X91732038Y-17463909D01*
X93160609Y-17463909D02*
X93303466Y-17463909D01*
X93303466Y-17463909D02*
X93446323Y-17535338D01*
X93446323Y-17535338D02*
X93517752Y-17606766D01*
X93517752Y-17606766D02*
X93589180Y-17749623D01*
X93589180Y-17749623D02*
X93660609Y-18035338D01*
X93660609Y-18035338D02*
X93660609Y-18392481D01*
X93660609Y-18392481D02*
X93589180Y-18678195D01*
X93589180Y-18678195D02*
X93517752Y-18821052D01*
X93517752Y-18821052D02*
X93446323Y-18892481D01*
X93446323Y-18892481D02*
X93303466Y-18963909D01*
X93303466Y-18963909D02*
X93160609Y-18963909D01*
X93160609Y-18963909D02*
X93017752Y-18892481D01*
X93017752Y-18892481D02*
X92946323Y-18821052D01*
X92946323Y-18821052D02*
X92874894Y-18678195D01*
X92874894Y-18678195D02*
X92803466Y-18392481D01*
X92803466Y-18392481D02*
X92803466Y-18035338D01*
X92803466Y-18035338D02*
X92874894Y-17749623D01*
X92874894Y-17749623D02*
X92946323Y-17606766D01*
X92946323Y-17606766D02*
X93017752Y-17535338D01*
X93017752Y-17535338D02*
X93160609Y-17463909D01*
X95446322Y-18963909D02*
X95446322Y-17963909D01*
X95446322Y-18106766D02*
X95517751Y-18035338D01*
X95517751Y-18035338D02*
X95660608Y-17963909D01*
X95660608Y-17963909D02*
X95874894Y-17963909D01*
X95874894Y-17963909D02*
X96017751Y-18035338D01*
X96017751Y-18035338D02*
X96089180Y-18178195D01*
X96089180Y-18178195D02*
X96089180Y-18963909D01*
X96089180Y-18178195D02*
X96160608Y-18035338D01*
X96160608Y-18035338D02*
X96303465Y-17963909D01*
X96303465Y-17963909D02*
X96517751Y-17963909D01*
X96517751Y-17963909D02*
X96660608Y-18035338D01*
X96660608Y-18035338D02*
X96732037Y-18178195D01*
X96732037Y-18178195D02*
X96732037Y-18963909D01*
X97446322Y-18963909D02*
X97446322Y-17963909D01*
X97446322Y-18106766D02*
X97517751Y-18035338D01*
X97517751Y-18035338D02*
X97660608Y-17963909D01*
X97660608Y-17963909D02*
X97874894Y-17963909D01*
X97874894Y-17963909D02*
X98017751Y-18035338D01*
X98017751Y-18035338D02*
X98089180Y-18178195D01*
X98089180Y-18178195D02*
X98089180Y-18963909D01*
X98089180Y-18178195D02*
X98160608Y-18035338D01*
X98160608Y-18035338D02*
X98303465Y-17963909D01*
X98303465Y-17963909D02*
X98517751Y-17963909D01*
X98517751Y-17963909D02*
X98660608Y-18035338D01*
X98660608Y-18035338D02*
X98732037Y-18178195D01*
X98732037Y-18178195D02*
X98732037Y-18963909D01*
D12*
X41160610Y-19585581D02*
X41160610Y-19499161D01*
X141160610Y-19585581D02*
X141160610Y-19499161D01*
X41160610Y-20085581D02*
X141160610Y-20085581D01*
X41160610Y-20085581D02*
X141160610Y-20085581D01*
X41160610Y-20085581D02*
X42287114Y-19499160D01*
X41160610Y-20085581D02*
X42287114Y-20672002D01*
X141160610Y-20085581D02*
X140034106Y-20672002D01*
X141160610Y-20085581D02*
X140034106Y-19499160D01*
D10*
D11*
X143213549Y-89619522D02*
X143213549Y-90476665D01*
X143213549Y-90048094D02*
X141713549Y-90048094D01*
X141713549Y-90048094D02*
X141927835Y-90190951D01*
X141927835Y-90190951D02*
X142070692Y-90333808D01*
X142070692Y-90333808D02*
X142142121Y-90476665D01*
X141856406Y-89048094D02*
X141784978Y-88976666D01*
X141784978Y-88976666D02*
X141713549Y-88833809D01*
X141713549Y-88833809D02*
X141713549Y-88476666D01*
X141713549Y-88476666D02*
X141784978Y-88333809D01*
X141784978Y-88333809D02*
X141856406Y-88262380D01*
X141856406Y-88262380D02*
X141999263Y-88190951D01*
X141999263Y-88190951D02*
X142142121Y-88190951D01*
X142142121Y-88190951D02*
X142356406Y-88262380D01*
X142356406Y-88262380D02*
X143213549Y-89119523D01*
X143213549Y-89119523D02*
X143213549Y-88190951D01*
X141713549Y-87262380D02*
X141713549Y-87119523D01*
X141713549Y-87119523D02*
X141784978Y-86976666D01*
X141784978Y-86976666D02*
X141856406Y-86905238D01*
X141856406Y-86905238D02*
X141999263Y-86833809D01*
X141999263Y-86833809D02*
X142284978Y-86762380D01*
X142284978Y-86762380D02*
X142642121Y-86762380D01*
X142642121Y-86762380D02*
X142927835Y-86833809D01*
X142927835Y-86833809D02*
X143070692Y-86905238D01*
X143070692Y-86905238D02*
X143142121Y-86976666D01*
X143142121Y-86976666D02*
X143213549Y-87119523D01*
X143213549Y-87119523D02*
X143213549Y-87262380D01*
X143213549Y-87262380D02*
X143142121Y-87405238D01*
X143142121Y-87405238D02*
X143070692Y-87476666D01*
X143070692Y-87476666D02*
X142927835Y-87548095D01*
X142927835Y-87548095D02*
X142642121Y-87619523D01*
X142642121Y-87619523D02*
X142284978Y-87619523D01*
X142284978Y-87619523D02*
X141999263Y-87548095D01*
X141999263Y-87548095D02*
X141856406Y-87476666D01*
X141856406Y-87476666D02*
X141784978Y-87405238D01*
X141784978Y-87405238D02*
X141713549Y-87262380D01*
X143070692Y-86119524D02*
X143142121Y-86048095D01*
X143142121Y-86048095D02*
X143213549Y-86119524D01*
X143213549Y-86119524D02*
X143142121Y-86190952D01*
X143142121Y-86190952D02*
X143070692Y-86119524D01*
X143070692Y-86119524D02*
X143213549Y-86119524D01*
X141713549Y-85119523D02*
X141713549Y-84976666D01*
X141713549Y-84976666D02*
X141784978Y-84833809D01*
X141784978Y-84833809D02*
X141856406Y-84762381D01*
X141856406Y-84762381D02*
X141999263Y-84690952D01*
X141999263Y-84690952D02*
X142284978Y-84619523D01*
X142284978Y-84619523D02*
X142642121Y-84619523D01*
X142642121Y-84619523D02*
X142927835Y-84690952D01*
X142927835Y-84690952D02*
X143070692Y-84762381D01*
X143070692Y-84762381D02*
X143142121Y-84833809D01*
X143142121Y-84833809D02*
X143213549Y-84976666D01*
X143213549Y-84976666D02*
X143213549Y-85119523D01*
X143213549Y-85119523D02*
X143142121Y-85262381D01*
X143142121Y-85262381D02*
X143070692Y-85333809D01*
X143070692Y-85333809D02*
X142927835Y-85405238D01*
X142927835Y-85405238D02*
X142642121Y-85476666D01*
X142642121Y-85476666D02*
X142284978Y-85476666D01*
X142284978Y-85476666D02*
X141999263Y-85405238D01*
X141999263Y-85405238D02*
X141856406Y-85333809D01*
X141856406Y-85333809D02*
X141784978Y-85262381D01*
X141784978Y-85262381D02*
X141713549Y-85119523D01*
X141713549Y-83690952D02*
X141713549Y-83548095D01*
X141713549Y-83548095D02*
X141784978Y-83405238D01*
X141784978Y-83405238D02*
X141856406Y-83333810D01*
X141856406Y-83333810D02*
X141999263Y-83262381D01*
X141999263Y-83262381D02*
X142284978Y-83190952D01*
X142284978Y-83190952D02*
X142642121Y-83190952D01*
X142642121Y-83190952D02*
X142927835Y-83262381D01*
X142927835Y-83262381D02*
X143070692Y-83333810D01*
X143070692Y-83333810D02*
X143142121Y-83405238D01*
X143142121Y-83405238D02*
X143213549Y-83548095D01*
X143213549Y-83548095D02*
X143213549Y-83690952D01*
X143213549Y-83690952D02*
X143142121Y-83833810D01*
X143142121Y-83833810D02*
X143070692Y-83905238D01*
X143070692Y-83905238D02*
X142927835Y-83976667D01*
X142927835Y-83976667D02*
X142642121Y-84048095D01*
X142642121Y-84048095D02*
X142284978Y-84048095D01*
X142284978Y-84048095D02*
X141999263Y-83976667D01*
X141999263Y-83976667D02*
X141856406Y-83905238D01*
X141856406Y-83905238D02*
X141784978Y-83833810D01*
X141784978Y-83833810D02*
X141713549Y-83690952D01*
X141713549Y-82262381D02*
X141713549Y-82119524D01*
X141713549Y-82119524D02*
X141784978Y-81976667D01*
X141784978Y-81976667D02*
X141856406Y-81905239D01*
X141856406Y-81905239D02*
X141999263Y-81833810D01*
X141999263Y-81833810D02*
X142284978Y-81762381D01*
X142284978Y-81762381D02*
X142642121Y-81762381D01*
X142642121Y-81762381D02*
X142927835Y-81833810D01*
X142927835Y-81833810D02*
X143070692Y-81905239D01*
X143070692Y-81905239D02*
X143142121Y-81976667D01*
X143142121Y-81976667D02*
X143213549Y-82119524D01*
X143213549Y-82119524D02*
X143213549Y-82262381D01*
X143213549Y-82262381D02*
X143142121Y-82405239D01*
X143142121Y-82405239D02*
X143070692Y-82476667D01*
X143070692Y-82476667D02*
X142927835Y-82548096D01*
X142927835Y-82548096D02*
X142642121Y-82619524D01*
X142642121Y-82619524D02*
X142284978Y-82619524D01*
X142284978Y-82619524D02*
X141999263Y-82548096D01*
X141999263Y-82548096D02*
X141856406Y-82476667D01*
X141856406Y-82476667D02*
X141784978Y-82405239D01*
X141784978Y-82405239D02*
X141713549Y-82262381D01*
X141713549Y-80833810D02*
X141713549Y-80690953D01*
X141713549Y-80690953D02*
X141784978Y-80548096D01*
X141784978Y-80548096D02*
X141856406Y-80476668D01*
X141856406Y-80476668D02*
X141999263Y-80405239D01*
X141999263Y-80405239D02*
X142284978Y-80333810D01*
X142284978Y-80333810D02*
X142642121Y-80333810D01*
X142642121Y-80333810D02*
X142927835Y-80405239D01*
X142927835Y-80405239D02*
X143070692Y-80476668D01*
X143070692Y-80476668D02*
X143142121Y-80548096D01*
X143142121Y-80548096D02*
X143213549Y-80690953D01*
X143213549Y-80690953D02*
X143213549Y-80833810D01*
X143213549Y-80833810D02*
X143142121Y-80976668D01*
X143142121Y-80976668D02*
X143070692Y-81048096D01*
X143070692Y-81048096D02*
X142927835Y-81119525D01*
X142927835Y-81119525D02*
X142642121Y-81190953D01*
X142642121Y-81190953D02*
X142284978Y-81190953D01*
X142284978Y-81190953D02*
X141999263Y-81119525D01*
X141999263Y-81119525D02*
X141856406Y-81048096D01*
X141856406Y-81048096D02*
X141784978Y-80976668D01*
X141784978Y-80976668D02*
X141713549Y-80833810D01*
X143213549Y-78548097D02*
X142213549Y-78548097D01*
X142356406Y-78548097D02*
X142284978Y-78476668D01*
X142284978Y-78476668D02*
X142213549Y-78333811D01*
X142213549Y-78333811D02*
X142213549Y-78119525D01*
X142213549Y-78119525D02*
X142284978Y-77976668D01*
X142284978Y-77976668D02*
X142427835Y-77905240D01*
X142427835Y-77905240D02*
X143213549Y-77905240D01*
X142427835Y-77905240D02*
X142284978Y-77833811D01*
X142284978Y-77833811D02*
X142213549Y-77690954D01*
X142213549Y-77690954D02*
X142213549Y-77476668D01*
X142213549Y-77476668D02*
X142284978Y-77333811D01*
X142284978Y-77333811D02*
X142427835Y-77262382D01*
X142427835Y-77262382D02*
X143213549Y-77262382D01*
X143213549Y-76548097D02*
X142213549Y-76548097D01*
X142356406Y-76548097D02*
X142284978Y-76476668D01*
X142284978Y-76476668D02*
X142213549Y-76333811D01*
X142213549Y-76333811D02*
X142213549Y-76119525D01*
X142213549Y-76119525D02*
X142284978Y-75976668D01*
X142284978Y-75976668D02*
X142427835Y-75905240D01*
X142427835Y-75905240D02*
X143213549Y-75905240D01*
X142427835Y-75905240D02*
X142284978Y-75833811D01*
X142284978Y-75833811D02*
X142213549Y-75690954D01*
X142213549Y-75690954D02*
X142213549Y-75476668D01*
X142213549Y-75476668D02*
X142284978Y-75333811D01*
X142284978Y-75333811D02*
X142427835Y-75262382D01*
X142427835Y-75262382D02*
X143213549Y-75262382D01*
D12*
X144835221Y-22833810D02*
X144921641Y-22833810D01*
X144835221Y-142833810D02*
X144921641Y-142833810D01*
X144335221Y-22833810D02*
X144335221Y-142833810D01*
X144335221Y-22833810D02*
X144335221Y-142833810D01*
X144335221Y-22833810D02*
X144921642Y-23960314D01*
X144335221Y-22833810D02*
X143748800Y-23960314D01*
X144335221Y-142833810D02*
X143748800Y-141707306D01*
X144335221Y-142833810D02*
X144921642Y-141707306D01*
D13*
%TO.P,H4,1,1*%
%TO.N,/V-*%
X117967201Y-146183101D03*
D14*
X117967201Y-146183101D03*
%TD*%
D13*
%TO.P,H3,1,1*%
%TO.N,/V-*%
X106351201Y-146310101D03*
D14*
X106351201Y-146310101D03*
%TD*%
D13*
%TO.P,H2,1,1*%
%TO.N,/V+*%
X75363201Y-146056101D03*
D14*
X75363201Y-146056101D03*
%TD*%
D13*
%TO.P,H1,1,1*%
%TO.N,/V+*%
X62917201Y-146183101D03*
D14*
X62917201Y-146183101D03*
%TD*%
D15*
%TO.P,R152,2*%
%TO.N,/V-*%
X137750000Y-132290000D03*
%TO.P,R152,1*%
%TO.N,/P7*%
X131825000Y-132290000D03*
%TD*%
%TO.P,R151,1*%
%TO.N,/P7*%
X131825000Y-126540000D03*
%TO.P,R151,2*%
%TO.N,/V-*%
X137750000Y-126540000D03*
%TD*%
%TO.P,R150,2*%
%TO.N,/V-*%
X137750000Y-120760000D03*
%TO.P,R150,1*%
%TO.N,/P7*%
X131825000Y-120760000D03*
%TD*%
%TO.P,R149,2*%
%TO.N,/V-*%
X137750000Y-114790000D03*
%TO.P,R149,1*%
%TO.N,/P7*%
X131825000Y-114790000D03*
%TD*%
%TO.P,R148,2*%
%TO.N,/V-*%
X137750000Y-109040000D03*
%TO.P,R148,1*%
%TO.N,/P7*%
X131825000Y-109040000D03*
%TD*%
%TO.P,R147,1*%
%TO.N,/P7*%
X131825000Y-103290000D03*
%TO.P,R147,2*%
%TO.N,/V-*%
X137750000Y-103290000D03*
%TD*%
%TO.P,R146,1*%
%TO.N,/P7*%
X131825000Y-97670000D03*
%TO.P,R146,2*%
%TO.N,/V-*%
X137750000Y-97670000D03*
%TD*%
%TO.P,R145,1*%
%TO.N,/P7*%
X131825000Y-91950000D03*
%TO.P,R145,2*%
%TO.N,/V-*%
X137750000Y-91950000D03*
%TD*%
%TO.P,R144,1*%
%TO.N,/P7*%
X131537500Y-86330000D03*
%TO.P,R144,2*%
%TO.N,/V-*%
X137462500Y-86330000D03*
%TD*%
%TO.P,R143,2*%
%TO.N,/V-*%
X137462500Y-80440000D03*
%TO.P,R143,1*%
%TO.N,/P7*%
X131537500Y-80440000D03*
%TD*%
%TO.P,R142,2*%
%TO.N,/V-*%
X137462500Y-74300000D03*
%TO.P,R142,1*%
%TO.N,/P7*%
X131537500Y-74300000D03*
%TD*%
%TO.P,R141,1*%
%TO.N,/P7*%
X131537500Y-68160000D03*
%TO.P,R141,2*%
%TO.N,/V-*%
X137462500Y-68160000D03*
%TD*%
%TO.P,R140,2*%
%TO.N,/V-*%
X137462500Y-61770000D03*
%TO.P,R140,1*%
%TO.N,/P7*%
X131537500Y-61770000D03*
%TD*%
%TO.P,R139,2*%
%TO.N,/V-*%
X137462500Y-55880000D03*
%TO.P,R139,1*%
%TO.N,/P7*%
X131537500Y-55880000D03*
%TD*%
%TO.P,R138,2*%
%TO.N,/V-*%
X137462500Y-49990000D03*
%TO.P,R138,1*%
%TO.N,/P7*%
X131537500Y-49990000D03*
%TD*%
%TO.P,R137,2*%
%TO.N,/V-*%
X137462500Y-44100000D03*
%TO.P,R137,1*%
%TO.N,/P7*%
X131537500Y-44100000D03*
%TD*%
%TO.P,R136,2*%
%TO.N,/V-*%
X137462500Y-37960000D03*
%TO.P,R136,1*%
%TO.N,/P7*%
X131537500Y-37960000D03*
%TD*%
%TO.P,R135,2*%
%TO.N,/V-*%
X137462500Y-32070000D03*
%TO.P,R135,1*%
%TO.N,/P7*%
X131537500Y-32070000D03*
%TD*%
%TO.P,R134,2*%
%TO.N,/V-*%
X137462500Y-26180000D03*
%TO.P,R134,1*%
%TO.N,/P7*%
X131537500Y-26180000D03*
%TD*%
%TO.P,R133,2*%
%TO.N,/P7*%
X125285710Y-132290000D03*
%TO.P,R133,1*%
%TO.N,/P6*%
X119360710Y-132290000D03*
%TD*%
%TO.P,R132,1*%
%TO.N,/P6*%
X119355352Y-126540000D03*
%TO.P,R132,2*%
%TO.N,/P7*%
X125280352Y-126540000D03*
%TD*%
%TO.P,R131,1*%
%TO.N,/P6*%
X119355352Y-120760000D03*
%TO.P,R131,2*%
%TO.N,/P7*%
X125280352Y-120760000D03*
%TD*%
%TO.P,R130,2*%
%TO.N,/P7*%
X125280352Y-114790000D03*
%TO.P,R130,1*%
%TO.N,/P6*%
X119355352Y-114790000D03*
%TD*%
%TO.P,R129,1*%
%TO.N,/P6*%
X119355352Y-109040000D03*
%TO.P,R129,2*%
%TO.N,/P7*%
X125280352Y-109040000D03*
%TD*%
%TO.P,R128,1*%
%TO.N,/P6*%
X119355352Y-103290000D03*
%TO.P,R128,2*%
%TO.N,/P7*%
X125280352Y-103290000D03*
%TD*%
%TO.P,R127,2*%
%TO.N,/P7*%
X125280352Y-97670000D03*
%TO.P,R127,1*%
%TO.N,/P6*%
X119355352Y-97670000D03*
%TD*%
%TO.P,R126,1*%
%TO.N,/P6*%
X119355352Y-91950000D03*
%TO.P,R126,2*%
%TO.N,/P7*%
X125280352Y-91950000D03*
%TD*%
%TO.P,R125,1*%
%TO.N,/P6*%
X119108926Y-86330000D03*
%TO.P,R125,2*%
%TO.N,/P7*%
X125033926Y-86330000D03*
%TD*%
%TO.P,R124,1*%
%TO.N,/P6*%
X119108926Y-80440000D03*
%TO.P,R124,2*%
%TO.N,/P7*%
X125033926Y-80440000D03*
%TD*%
%TO.P,R123,1*%
%TO.N,/P6*%
X119108926Y-74300000D03*
%TO.P,R123,2*%
%TO.N,/P7*%
X125033926Y-74300000D03*
%TD*%
%TO.P,R122,2*%
%TO.N,/P7*%
X125033926Y-68160000D03*
%TO.P,R122,1*%
%TO.N,/P6*%
X119108926Y-68160000D03*
%TD*%
%TO.P,R121,1*%
%TO.N,/P6*%
X119108926Y-61770000D03*
%TO.P,R121,2*%
%TO.N,/P7*%
X125033926Y-61770000D03*
%TD*%
%TO.P,R120,1*%
%TO.N,/P6*%
X119108926Y-55880000D03*
%TO.P,R120,2*%
%TO.N,/P7*%
X125033926Y-55880000D03*
%TD*%
%TO.P,R119,1*%
%TO.N,/P6*%
X119108926Y-49990000D03*
%TO.P,R119,2*%
%TO.N,/P7*%
X125033926Y-49990000D03*
%TD*%
%TO.P,R118,1*%
%TO.N,/P6*%
X119108926Y-44100000D03*
%TO.P,R118,2*%
%TO.N,/P7*%
X125033926Y-44100000D03*
%TD*%
%TO.P,R117,1*%
%TO.N,/P6*%
X119108926Y-37960000D03*
%TO.P,R117,2*%
%TO.N,/P7*%
X125033926Y-37960000D03*
%TD*%
%TO.P,R116,1*%
%TO.N,/P6*%
X119108926Y-32070000D03*
%TO.P,R116,2*%
%TO.N,/P7*%
X125033926Y-32070000D03*
%TD*%
%TO.P,R115,1*%
%TO.N,/P6*%
X119108926Y-26180000D03*
%TO.P,R115,2*%
%TO.N,/P7*%
X125033926Y-26180000D03*
%TD*%
%TO.P,R114,1*%
%TO.N,/P5*%
X106896425Y-132290000D03*
%TO.P,R114,2*%
%TO.N,/P6*%
X112821425Y-132290000D03*
%TD*%
%TO.P,R113,1*%
%TO.N,/P5*%
X106885710Y-126540000D03*
%TO.P,R113,2*%
%TO.N,/P6*%
X112810710Y-126540000D03*
%TD*%
%TO.P,R112,1*%
%TO.N,/P5*%
X106885710Y-120760000D03*
%TO.P,R112,2*%
%TO.N,/P6*%
X112810710Y-120760000D03*
%TD*%
%TO.P,R111,2*%
%TO.N,/P6*%
X112810710Y-114790000D03*
%TO.P,R111,1*%
%TO.N,/P5*%
X106885710Y-114790000D03*
%TD*%
%TO.P,R110,2*%
%TO.N,/P6*%
X112810710Y-109040000D03*
%TO.P,R110,1*%
%TO.N,/P5*%
X106885710Y-109040000D03*
%TD*%
%TO.P,R109,1*%
%TO.N,/P5*%
X106885710Y-103290000D03*
%TO.P,R109,2*%
%TO.N,/P6*%
X112810710Y-103290000D03*
%TD*%
%TO.P,R108,2*%
%TO.N,/P6*%
X112810710Y-97670000D03*
%TO.P,R108,1*%
%TO.N,/P5*%
X106885710Y-97670000D03*
%TD*%
%TO.P,R107,2*%
%TO.N,/P6*%
X112810710Y-91950000D03*
%TO.P,R107,1*%
%TO.N,/P5*%
X106885710Y-91950000D03*
%TD*%
%TO.P,R106,1*%
%TO.N,/P5*%
X106680355Y-86330000D03*
%TO.P,R106,2*%
%TO.N,/P6*%
X112605355Y-86330000D03*
%TD*%
%TO.P,R105,1*%
%TO.N,/P5*%
X106680355Y-80440000D03*
%TO.P,R105,2*%
%TO.N,/P6*%
X112605355Y-80440000D03*
%TD*%
%TO.P,R104,1*%
%TO.N,/P5*%
X106680355Y-74300000D03*
%TO.P,R104,2*%
%TO.N,/P6*%
X112605355Y-74300000D03*
%TD*%
%TO.P,R103,2*%
%TO.N,/P6*%
X112605355Y-68160000D03*
%TO.P,R103,1*%
%TO.N,/P5*%
X106680355Y-68160000D03*
%TD*%
%TO.P,R102,1*%
%TO.N,/P5*%
X106680355Y-61770000D03*
%TO.P,R102,2*%
%TO.N,/P6*%
X112605355Y-61770000D03*
%TD*%
%TO.P,R101,1*%
%TO.N,/P5*%
X106680355Y-55880000D03*
%TO.P,R101,2*%
%TO.N,/P6*%
X112605355Y-55880000D03*
%TD*%
%TO.P,R100,1*%
%TO.N,/P5*%
X106680355Y-49990000D03*
%TO.P,R100,2*%
%TO.N,/P6*%
X112605355Y-49990000D03*
%TD*%
%TO.P,R99,1*%
%TO.N,/P5*%
X106680355Y-44100000D03*
%TO.P,R99,2*%
%TO.N,/P6*%
X112605355Y-44100000D03*
%TD*%
%TO.P,R98,1*%
%TO.N,/P5*%
X106680355Y-37960000D03*
%TO.P,R98,2*%
%TO.N,/P6*%
X112605355Y-37960000D03*
%TD*%
%TO.P,R97,1*%
%TO.N,/P5*%
X106680355Y-32070000D03*
%TO.P,R97,2*%
%TO.N,/P6*%
X112605355Y-32070000D03*
%TD*%
%TO.P,R96,1*%
%TO.N,/P5*%
X106680355Y-26180000D03*
%TO.P,R96,2*%
%TO.N,/P6*%
X112605355Y-26180000D03*
%TD*%
%TO.P,R95,2*%
%TO.N,/P5*%
X100357140Y-132290000D03*
%TO.P,R95,1*%
%TO.N,/P4*%
X94432140Y-132290000D03*
%TD*%
%TO.P,R94,2*%
%TO.N,/P5*%
X100341068Y-126540000D03*
%TO.P,R94,1*%
%TO.N,/P4*%
X94416068Y-126540000D03*
%TD*%
%TO.P,R93,2*%
%TO.N,/P5*%
X100341068Y-120760000D03*
%TO.P,R93,1*%
%TO.N,/P4*%
X94416068Y-120760000D03*
%TD*%
%TO.P,R92,2*%
%TO.N,/P5*%
X100341068Y-114790000D03*
%TO.P,R92,1*%
%TO.N,/P4*%
X94416068Y-114790000D03*
%TD*%
%TO.P,R91,1*%
%TO.N,/P4*%
X94416068Y-109040000D03*
%TO.P,R91,2*%
%TO.N,/P5*%
X100341068Y-109040000D03*
%TD*%
%TO.P,R90,2*%
%TO.N,/P5*%
X100341068Y-103290000D03*
%TO.P,R90,1*%
%TO.N,/P4*%
X94416068Y-103290000D03*
%TD*%
%TO.P,R89,1*%
%TO.N,/P4*%
X94416068Y-97670000D03*
%TO.P,R89,2*%
%TO.N,/P5*%
X100341068Y-97670000D03*
%TD*%
%TO.P,R88,2*%
%TO.N,/P5*%
X100341068Y-91950000D03*
%TO.P,R88,1*%
%TO.N,/P4*%
X94416068Y-91950000D03*
%TD*%
%TO.P,R87,1*%
%TO.N,/P4*%
X94251784Y-86330000D03*
%TO.P,R87,2*%
%TO.N,/P5*%
X100176784Y-86330000D03*
%TD*%
%TO.P,R86,1*%
%TO.N,/P4*%
X94251784Y-80440000D03*
%TO.P,R86,2*%
%TO.N,/P5*%
X100176784Y-80440000D03*
%TD*%
%TO.P,R85,1*%
%TO.N,/P4*%
X94251784Y-74300000D03*
%TO.P,R85,2*%
%TO.N,/P5*%
X100176784Y-74300000D03*
%TD*%
%TO.P,R84,2*%
%TO.N,/P5*%
X100176784Y-68160000D03*
%TO.P,R84,1*%
%TO.N,/P4*%
X94251784Y-68160000D03*
%TD*%
%TO.P,R83,1*%
%TO.N,/P4*%
X94251784Y-61770000D03*
%TO.P,R83,2*%
%TO.N,/P5*%
X100176784Y-61770000D03*
%TD*%
%TO.P,R82,1*%
%TO.N,/P4*%
X94251784Y-55880000D03*
%TO.P,R82,2*%
%TO.N,/P5*%
X100176784Y-55880000D03*
%TD*%
%TO.P,R81,1*%
%TO.N,/P4*%
X94251784Y-49990000D03*
%TO.P,R81,2*%
%TO.N,/P5*%
X100176784Y-49990000D03*
%TD*%
%TO.P,R80,1*%
%TO.N,/P4*%
X94251784Y-44100000D03*
%TO.P,R80,2*%
%TO.N,/P5*%
X100176784Y-44100000D03*
%TD*%
%TO.P,R79,1*%
%TO.N,/P4*%
X94251784Y-37960000D03*
%TO.P,R79,2*%
%TO.N,/P5*%
X100176784Y-37960000D03*
%TD*%
%TO.P,R78,1*%
%TO.N,/P4*%
X94251784Y-32070000D03*
%TO.P,R78,2*%
%TO.N,/P5*%
X100176784Y-32070000D03*
%TD*%
%TO.P,R77,2*%
%TO.N,/P5*%
X100176784Y-26180000D03*
%TO.P,R77,1*%
%TO.N,/P4*%
X94251784Y-26180000D03*
%TD*%
%TO.P,R76,1*%
%TO.N,/P3*%
X81967855Y-132290000D03*
%TO.P,R76,2*%
%TO.N,/P4*%
X87892855Y-132290000D03*
%TD*%
%TO.P,R75,1*%
%TO.N,/P3*%
X81946426Y-126540000D03*
%TO.P,R75,2*%
%TO.N,/P4*%
X87871426Y-126540000D03*
%TD*%
%TO.P,R74,2*%
%TO.N,/P4*%
X87871426Y-120760000D03*
%TO.P,R74,1*%
%TO.N,/P3*%
X81946426Y-120760000D03*
%TD*%
%TO.P,R73,1*%
%TO.N,/P3*%
X81946426Y-114790000D03*
%TO.P,R73,2*%
%TO.N,/P4*%
X87871426Y-114790000D03*
%TD*%
%TO.P,R72,2*%
%TO.N,/P4*%
X87871426Y-109040000D03*
%TO.P,R72,1*%
%TO.N,/P3*%
X81946426Y-109040000D03*
%TD*%
%TO.P,R71,1*%
%TO.N,/P3*%
X81946426Y-103290000D03*
%TO.P,R71,2*%
%TO.N,/P4*%
X87871426Y-103290000D03*
%TD*%
%TO.P,R70,1*%
%TO.N,/P3*%
X81946426Y-97670000D03*
%TO.P,R70,2*%
%TO.N,/P4*%
X87871426Y-97670000D03*
%TD*%
%TO.P,R69,2*%
%TO.N,/P4*%
X87871426Y-91950000D03*
%TO.P,R69,1*%
%TO.N,/P3*%
X81946426Y-91950000D03*
%TD*%
%TO.P,R68,1*%
%TO.N,/P3*%
X81823213Y-86330000D03*
%TO.P,R68,2*%
%TO.N,/P4*%
X87748213Y-86330000D03*
%TD*%
%TO.P,R67,1*%
%TO.N,/P3*%
X81823213Y-80440000D03*
%TO.P,R67,2*%
%TO.N,/P4*%
X87748213Y-80440000D03*
%TD*%
%TO.P,R66,1*%
%TO.N,/P3*%
X81823213Y-74300000D03*
%TO.P,R66,2*%
%TO.N,/P4*%
X87748213Y-74300000D03*
%TD*%
%TO.P,R65,2*%
%TO.N,/P4*%
X87748213Y-68160000D03*
%TO.P,R65,1*%
%TO.N,/P3*%
X81823213Y-68160000D03*
%TD*%
%TO.P,R64,1*%
%TO.N,/P3*%
X81823213Y-61770000D03*
%TO.P,R64,2*%
%TO.N,/P4*%
X87748213Y-61770000D03*
%TD*%
%TO.P,R63,1*%
%TO.N,/P3*%
X81823213Y-55880000D03*
%TO.P,R63,2*%
%TO.N,/P4*%
X87748213Y-55880000D03*
%TD*%
%TO.P,R62,1*%
%TO.N,/P3*%
X81823213Y-49990000D03*
%TO.P,R62,2*%
%TO.N,/P4*%
X87748213Y-49990000D03*
%TD*%
%TO.P,R61,1*%
%TO.N,/P3*%
X81823213Y-44100000D03*
%TO.P,R61,2*%
%TO.N,/P4*%
X87748213Y-44100000D03*
%TD*%
%TO.P,R60,1*%
%TO.N,/P3*%
X81823213Y-37960000D03*
%TO.P,R60,2*%
%TO.N,/P4*%
X87748213Y-37960000D03*
%TD*%
%TO.P,R59,2*%
%TO.N,/P4*%
X87748213Y-32070000D03*
%TO.P,R59,1*%
%TO.N,/P3*%
X81823213Y-32070000D03*
%TD*%
%TO.P,R58,1*%
%TO.N,/P3*%
X81823213Y-26180000D03*
%TO.P,R58,2*%
%TO.N,/P4*%
X87748213Y-26180000D03*
%TD*%
%TO.P,R57,2*%
%TO.N,/P3*%
X75428570Y-132290000D03*
%TO.P,R57,1*%
%TO.N,/P2*%
X69503570Y-132290000D03*
%TD*%
%TO.P,R56,1*%
%TO.N,/P2*%
X69476784Y-126540000D03*
%TO.P,R56,2*%
%TO.N,/P3*%
X75401784Y-126540000D03*
%TD*%
%TO.P,R55,1*%
%TO.N,/P2*%
X69476784Y-120760000D03*
%TO.P,R55,2*%
%TO.N,/P3*%
X75401784Y-120760000D03*
%TD*%
%TO.P,R54,1*%
%TO.N,/P2*%
X69476784Y-114790000D03*
%TO.P,R54,2*%
%TO.N,/P3*%
X75401784Y-114790000D03*
%TD*%
%TO.P,R53,2*%
%TO.N,/P3*%
X75401784Y-109040000D03*
%TO.P,R53,1*%
%TO.N,/P2*%
X69476784Y-109040000D03*
%TD*%
%TO.P,R52,2*%
%TO.N,/P3*%
X75401784Y-103290000D03*
%TO.P,R52,1*%
%TO.N,/P2*%
X69476784Y-103290000D03*
%TD*%
%TO.P,R51,2*%
%TO.N,/P3*%
X75401784Y-97670000D03*
%TO.P,R51,1*%
%TO.N,/P2*%
X69476784Y-97670000D03*
%TD*%
%TO.P,R50,1*%
%TO.N,/P2*%
X69476784Y-91950000D03*
%TO.P,R50,2*%
%TO.N,/P3*%
X75401784Y-91950000D03*
%TD*%
%TO.P,R49,2*%
%TO.N,/P3*%
X75319642Y-86330000D03*
%TO.P,R49,1*%
%TO.N,/P2*%
X69394642Y-86330000D03*
%TD*%
%TO.P,R48,2*%
%TO.N,/P3*%
X75319642Y-80440000D03*
%TO.P,R48,1*%
%TO.N,/P2*%
X69394642Y-80440000D03*
%TD*%
%TO.P,R47,2*%
%TO.N,/P3*%
X75319642Y-74300000D03*
%TO.P,R47,1*%
%TO.N,/P2*%
X69394642Y-74300000D03*
%TD*%
%TO.P,R46,1*%
%TO.N,/P2*%
X69394642Y-68160000D03*
%TO.P,R46,2*%
%TO.N,/P3*%
X75319642Y-68160000D03*
%TD*%
%TO.P,R45,2*%
%TO.N,/P3*%
X75319642Y-61770000D03*
%TO.P,R45,1*%
%TO.N,/P2*%
X69394642Y-61770000D03*
%TD*%
%TO.P,R44,2*%
%TO.N,/P3*%
X75319642Y-55880000D03*
%TO.P,R44,1*%
%TO.N,/P2*%
X69394642Y-55880000D03*
%TD*%
%TO.P,R43,2*%
%TO.N,/P3*%
X75319642Y-49990000D03*
%TO.P,R43,1*%
%TO.N,/P2*%
X69394642Y-49990000D03*
%TD*%
%TO.P,R42,2*%
%TO.N,/P3*%
X75319642Y-44100000D03*
%TO.P,R42,1*%
%TO.N,/P2*%
X69394642Y-44100000D03*
%TD*%
%TO.P,R41,1*%
%TO.N,/P2*%
X69394642Y-37960000D03*
%TO.P,R41,2*%
%TO.N,/P3*%
X75319642Y-37960000D03*
%TD*%
%TO.P,R40,2*%
%TO.N,/P3*%
X75319642Y-32070000D03*
%TO.P,R40,1*%
%TO.N,/P2*%
X69394642Y-32070000D03*
%TD*%
%TO.P,R39,1*%
%TO.N,/P2*%
X69394642Y-26180000D03*
%TO.P,R39,2*%
%TO.N,/P3*%
X75319642Y-26180000D03*
%TD*%
%TO.P,R38,1*%
%TO.N,/P1*%
X57039285Y-132290000D03*
%TO.P,R38,2*%
%TO.N,/P2*%
X62964285Y-132290000D03*
%TD*%
%TO.P,R37,1*%
%TO.N,/P1*%
X57007142Y-126540000D03*
%TO.P,R37,2*%
%TO.N,/P2*%
X62932142Y-126540000D03*
%TD*%
%TO.P,R36,1*%
%TO.N,/P1*%
X57007142Y-120760000D03*
%TO.P,R36,2*%
%TO.N,/P2*%
X62932142Y-120760000D03*
%TD*%
%TO.P,R35,2*%
%TO.N,/P2*%
X62932142Y-114790000D03*
%TO.P,R35,1*%
%TO.N,/P1*%
X57007142Y-114790000D03*
%TD*%
%TO.P,R34,2*%
%TO.N,/P2*%
X62932142Y-109040000D03*
%TO.P,R34,1*%
%TO.N,/P1*%
X57007142Y-109040000D03*
%TD*%
%TO.P,R33,2*%
%TO.N,/P2*%
X62932142Y-103290000D03*
%TO.P,R33,1*%
%TO.N,/P1*%
X57007142Y-103290000D03*
%TD*%
%TO.P,R32,2*%
%TO.N,/P2*%
X62932142Y-97670000D03*
%TO.P,R32,1*%
%TO.N,/P1*%
X57007142Y-97670000D03*
%TD*%
%TO.P,R31,1*%
%TO.N,/P1*%
X57007142Y-91950000D03*
%TO.P,R31,2*%
%TO.N,/P2*%
X62932142Y-91950000D03*
%TD*%
%TO.P,R30,2*%
%TO.N,/P2*%
X62891071Y-86330000D03*
%TO.P,R30,1*%
%TO.N,/P1*%
X56966071Y-86330000D03*
%TD*%
%TO.P,R29,2*%
%TO.N,/P2*%
X62891071Y-80440000D03*
%TO.P,R29,1*%
%TO.N,/P1*%
X56966071Y-80440000D03*
%TD*%
%TO.P,R28,2*%
%TO.N,/P2*%
X62891071Y-74300000D03*
%TO.P,R28,1*%
%TO.N,/P1*%
X56966071Y-74300000D03*
%TD*%
%TO.P,R27,1*%
%TO.N,/P1*%
X56966071Y-68160000D03*
%TO.P,R27,2*%
%TO.N,/P2*%
X62891071Y-68160000D03*
%TD*%
%TO.P,R26,2*%
%TO.N,/P2*%
X62891071Y-61770000D03*
%TO.P,R26,1*%
%TO.N,/P1*%
X56966071Y-61770000D03*
%TD*%
%TO.P,R25,2*%
%TO.N,/P2*%
X62891071Y-55880000D03*
%TO.P,R25,1*%
%TO.N,/P1*%
X56966071Y-55880000D03*
%TD*%
%TO.P,R24,2*%
%TO.N,/P2*%
X62891071Y-49990000D03*
%TO.P,R24,1*%
%TO.N,/P1*%
X56966071Y-49990000D03*
%TD*%
%TO.P,R23,1*%
%TO.N,/P1*%
X56966071Y-44100000D03*
%TO.P,R23,2*%
%TO.N,/P2*%
X62891071Y-44100000D03*
%TD*%
%TO.P,R22,2*%
%TO.N,/P2*%
X62891071Y-37960000D03*
%TO.P,R22,1*%
%TO.N,/P1*%
X56966071Y-37960000D03*
%TD*%
%TO.P,R21,1*%
%TO.N,/P1*%
X56966071Y-32070000D03*
%TO.P,R21,2*%
%TO.N,/P2*%
X62891071Y-32070000D03*
%TD*%
%TO.P,R20,1*%
%TO.N,/P1*%
X56966071Y-26180000D03*
%TO.P,R20,2*%
%TO.N,/P2*%
X62891071Y-26180000D03*
%TD*%
%TO.P,R19,2*%
%TO.N,/P1*%
X50500000Y-132290000D03*
%TO.P,R19,1*%
%TO.N,/V+*%
X44575000Y-132290000D03*
%TD*%
%TO.P,R18,1*%
%TO.N,/V+*%
X44537500Y-126540000D03*
%TO.P,R18,2*%
%TO.N,/P1*%
X50462500Y-126540000D03*
%TD*%
%TO.P,R17,1*%
%TO.N,/V+*%
X44537500Y-120760000D03*
%TO.P,R17,2*%
%TO.N,/P1*%
X50462500Y-120760000D03*
%TD*%
%TO.P,R16,1*%
%TO.N,/V+*%
X44537500Y-114790000D03*
%TO.P,R16,2*%
%TO.N,/P1*%
X50462500Y-114790000D03*
%TD*%
%TO.P,R15,1*%
%TO.N,/V+*%
X44537500Y-109040000D03*
%TO.P,R15,2*%
%TO.N,/P1*%
X50462500Y-109040000D03*
%TD*%
%TO.P,R14,1*%
%TO.N,/V+*%
X44537500Y-103290000D03*
%TO.P,R14,2*%
%TO.N,/P1*%
X50462500Y-103290000D03*
%TD*%
%TO.P,R13,1*%
%TO.N,/V+*%
X44537500Y-97670000D03*
%TO.P,R13,2*%
%TO.N,/P1*%
X50462500Y-97670000D03*
%TD*%
%TO.P,R12,2*%
%TO.N,/P1*%
X50462500Y-91950000D03*
%TO.P,R12,1*%
%TO.N,/V+*%
X44537500Y-91950000D03*
%TD*%
%TO.P,R11,1*%
%TO.N,/V+*%
X44537500Y-86330000D03*
%TO.P,R11,2*%
%TO.N,/P1*%
X50462500Y-86330000D03*
%TD*%
%TO.P,R10,1*%
%TO.N,/V+*%
X44537500Y-80440000D03*
%TO.P,R10,2*%
%TO.N,/P1*%
X50462500Y-80440000D03*
%TD*%
%TO.P,R9,1*%
%TO.N,/V+*%
X44537500Y-74300000D03*
%TO.P,R9,2*%
%TO.N,/P1*%
X50462500Y-74300000D03*
%TD*%
%TO.P,R8,2*%
%TO.N,/P1*%
X50462500Y-68160000D03*
%TO.P,R8,1*%
%TO.N,/V+*%
X44537500Y-68160000D03*
%TD*%
%TO.P,R7,1*%
%TO.N,/V+*%
X44537500Y-61770000D03*
%TO.P,R7,2*%
%TO.N,/P1*%
X50462500Y-61770000D03*
%TD*%
%TO.P,R6,1*%
%TO.N,/V+*%
X44537500Y-55880000D03*
%TO.P,R6,2*%
%TO.N,/P1*%
X50462500Y-55880000D03*
%TD*%
%TO.P,R5,2*%
%TO.N,/P1*%
X50462500Y-49990000D03*
%TO.P,R5,1*%
%TO.N,/V+*%
X44537500Y-49990000D03*
%TD*%
%TO.P,R4,1*%
%TO.N,/V+*%
X44537500Y-44100000D03*
%TO.P,R4,2*%
%TO.N,/P1*%
X50462500Y-44100000D03*
%TD*%
%TO.P,R3,2*%
%TO.N,/P1*%
X50462500Y-37960000D03*
%TO.P,R3,1*%
%TO.N,/V+*%
X44537500Y-37960000D03*
%TD*%
%TO.P,R2,2*%
%TO.N,/P1*%
X50462500Y-32070000D03*
%TO.P,R2,1*%
%TO.N,/V+*%
X44537500Y-32070000D03*
%TD*%
%TO.P,R1,2*%
%TO.N,/P1*%
X50462500Y-26180000D03*
%TO.P,R1,1*%
%TO.N,/V+*%
X44537500Y-26180000D03*
%TD*%
D16*
%TO.N,*%
X109728000Y-132290000D03*
X84709000Y-132290000D03*
X72263000Y-132290000D03*
X97282000Y-132290000D03*
X134620000Y-132290000D03*
X122047000Y-132290000D03*
X47500000Y-132290000D03*
X59944000Y-132290000D03*
X134620000Y-126540000D03*
X134620000Y-109040000D03*
X134620000Y-61770000D03*
X134620000Y-74300000D03*
X134620000Y-26180000D03*
X134620000Y-37960000D03*
X134620000Y-32070000D03*
X134620000Y-103290000D03*
X134620000Y-97670000D03*
X134620000Y-44100000D03*
X134620000Y-55880000D03*
X134620000Y-114790000D03*
X134620000Y-80440000D03*
X134620000Y-68160000D03*
X134620000Y-120760000D03*
X134620000Y-49990000D03*
X134620000Y-91950000D03*
X134620000Y-86330000D03*
X122047000Y-126540000D03*
X122047000Y-80440000D03*
X122047000Y-86330000D03*
X122047000Y-61770000D03*
X122047000Y-74300000D03*
X122047000Y-26180000D03*
X122047000Y-37960000D03*
X122047000Y-32070000D03*
X122047000Y-68160000D03*
X122047000Y-103290000D03*
X122047000Y-109040000D03*
X122047000Y-97670000D03*
X122047000Y-44100000D03*
X122047000Y-55880000D03*
X122047000Y-114790000D03*
X122047000Y-120760000D03*
X122047000Y-49990000D03*
X122047000Y-91950000D03*
X109728000Y-126540000D03*
X109728000Y-61770000D03*
X109728000Y-74300000D03*
X109728000Y-68160000D03*
X109728000Y-26180000D03*
X109728000Y-86330000D03*
X109728000Y-37960000D03*
X109728000Y-103290000D03*
X109728000Y-114790000D03*
X109728000Y-109040000D03*
X109728000Y-120760000D03*
X109728000Y-97670000D03*
X109728000Y-44100000D03*
X109728000Y-55880000D03*
X109728000Y-80440000D03*
X109728000Y-32070000D03*
X109728000Y-49990000D03*
X109728000Y-91950000D03*
X97282000Y-126540000D03*
X97282000Y-61770000D03*
X97282000Y-86330000D03*
X97282000Y-74300000D03*
X97282000Y-26180000D03*
X97282000Y-109040000D03*
X97282000Y-37960000D03*
X97282000Y-49990000D03*
X97282000Y-103290000D03*
X97282000Y-55880000D03*
X97282000Y-97670000D03*
X97282000Y-44100000D03*
X97282000Y-114790000D03*
X97282000Y-80440000D03*
X97282000Y-32070000D03*
X97282000Y-68160000D03*
X97282000Y-120760000D03*
X97282000Y-91950000D03*
X84709000Y-126540000D03*
X84709000Y-74300000D03*
X84709000Y-114790000D03*
X84709000Y-61770000D03*
X84709000Y-80440000D03*
X84709000Y-32070000D03*
X84709000Y-26180000D03*
X84709000Y-68160000D03*
X84709000Y-37960000D03*
X84709000Y-103290000D03*
X84709000Y-109040000D03*
X84709000Y-97670000D03*
X84709000Y-44100000D03*
X84709000Y-55880000D03*
X84709000Y-120760000D03*
X84709000Y-49990000D03*
X84709000Y-91950000D03*
X84709000Y-86330000D03*
X72263000Y-126540000D03*
X72263000Y-61770000D03*
X72263000Y-44100000D03*
X72263000Y-74300000D03*
X72263000Y-26180000D03*
X72263000Y-103290000D03*
X72263000Y-37960000D03*
X72263000Y-49990000D03*
X72263000Y-109040000D03*
X72263000Y-80440000D03*
X72263000Y-97670000D03*
X72263000Y-68160000D03*
X72263000Y-55880000D03*
X72263000Y-114790000D03*
X72263000Y-32070000D03*
X72263000Y-120760000D03*
X72263000Y-91950000D03*
X72263000Y-86330000D03*
X59944000Y-126540000D03*
X59944000Y-61770000D03*
X59944000Y-74300000D03*
X59944000Y-26180000D03*
X59944000Y-97670000D03*
X59944000Y-49990000D03*
X59944000Y-37960000D03*
X59944000Y-103290000D03*
X59944000Y-109040000D03*
X59944000Y-44100000D03*
X59944000Y-55880000D03*
X59944000Y-114790000D03*
X59944000Y-80440000D03*
X59944000Y-32070000D03*
X59944000Y-68160000D03*
X59944000Y-120760000D03*
X59944000Y-91950000D03*
X59944000Y-86330000D03*
X47500000Y-126540000D03*
X47500000Y-120760000D03*
X47500000Y-114790000D03*
X47500000Y-109040000D03*
X47500000Y-103290000D03*
X47500000Y-97670000D03*
X47500000Y-91950000D03*
X47500000Y-86330000D03*
X47500000Y-80440000D03*
X47500000Y-74300000D03*
X47500000Y-68160000D03*
X47500000Y-61770000D03*
X47500000Y-55880000D03*
X47500000Y-49990000D03*
X47500000Y-44100000D03*
X47500000Y-37960000D03*
X47500000Y-32070000D03*
X47500000Y-26180000D03*
%TD*%
D17*
%TO.N,/V-*%
X126636976Y-146183101D02*
X137644015Y-135176062D01*
X117967201Y-146183101D02*
X126636976Y-146183101D01*
X106351201Y-146310101D02*
X117840201Y-146310101D01*
X117840201Y-146310101D02*
X117967201Y-146183101D01*
%TO.N,/V+*%
X55436614Y-146183101D02*
X44500000Y-135246487D01*
X62917201Y-146183101D02*
X55436614Y-146183101D01*
X75363201Y-146056101D02*
X63044201Y-146056101D01*
X63044201Y-146056101D02*
X62917201Y-146183101D01*
%TO.N,/V-*%
X118169000Y-147765218D02*
X118177862Y-147756356D01*
%TO.N,/V+*%
X63246000Y-147638218D02*
X63119000Y-147765218D01*
%TD*%
%TA.AperFunction,Conductor*%
%TO.N,/P1*%
G36*
X57535742Y-24480672D02*
G01*
X57581497Y-24533476D01*
X57592703Y-24585001D01*
X57580166Y-133964810D01*
X57560474Y-134031847D01*
X57507665Y-134077596D01*
X57457110Y-134088792D01*
X50071508Y-134145028D01*
X50004321Y-134125855D01*
X49958165Y-134073401D01*
X49946564Y-134021005D01*
X49972687Y-24584955D01*
X49992388Y-24517923D01*
X50045202Y-24472180D01*
X50096687Y-24460987D01*
X57468703Y-24460987D01*
X57535742Y-24480672D01*
G37*
%TD.AperFunction*%
%TD*%
%TA.AperFunction,Conductor*%
%TO.N,/P2*%
G36*
X69868144Y-24445140D02*
G01*
X69913899Y-24497944D01*
X69925105Y-24549469D01*
X69912568Y-133929278D01*
X69892876Y-133996315D01*
X69840067Y-134042064D01*
X69789512Y-134053260D01*
X62403910Y-134109496D01*
X62336723Y-134090323D01*
X62290567Y-134037869D01*
X62278966Y-133985473D01*
X62305089Y-24549423D01*
X62324790Y-24482391D01*
X62377604Y-24436648D01*
X62429089Y-24425455D01*
X69801105Y-24425455D01*
X69868144Y-24445140D01*
G37*
%TD.AperFunction*%
%TD*%
%TA.AperFunction,Conductor*%
%TO.N,/P3*%
G36*
X82318998Y-24504973D02*
G01*
X82364753Y-24557777D01*
X82375959Y-24609302D01*
X82363422Y-133989111D01*
X82343730Y-134056148D01*
X82290921Y-134101897D01*
X82240366Y-134113093D01*
X74854764Y-134169329D01*
X74787577Y-134150156D01*
X74741421Y-134097702D01*
X74729820Y-134045306D01*
X74755943Y-24609256D01*
X74775644Y-24542224D01*
X74828458Y-24496481D01*
X74879943Y-24485288D01*
X82251959Y-24485288D01*
X82318998Y-24504973D01*
G37*
%TD.AperFunction*%
%TD*%
%TA.AperFunction,Conductor*%
%TO.N,/P4*%
G36*
X94734193Y-24445140D02*
G01*
X94779948Y-24497944D01*
X94791154Y-24549469D01*
X94778617Y-133929278D01*
X94758925Y-133996315D01*
X94706116Y-134042064D01*
X94655561Y-134053260D01*
X87269959Y-134109496D01*
X87202772Y-134090323D01*
X87156616Y-134037869D01*
X87145015Y-133985473D01*
X87171138Y-24549423D01*
X87190839Y-24482391D01*
X87243653Y-24436648D01*
X87295138Y-24425455D01*
X94667154Y-24425455D01*
X94734193Y-24445140D01*
G37*
%TD.AperFunction*%
%TD*%
%TA.AperFunction,Conductor*%
%TO.N,/P5*%
G36*
X107149388Y-24475056D02*
G01*
X107195143Y-24527860D01*
X107206349Y-24579385D01*
X107193812Y-133959194D01*
X107174120Y-134026231D01*
X107121311Y-134071980D01*
X107070756Y-134083176D01*
X99685154Y-134139412D01*
X99617967Y-134120239D01*
X99571811Y-134067785D01*
X99560210Y-134015389D01*
X99586333Y-24579339D01*
X99606034Y-24512307D01*
X99658848Y-24466564D01*
X99710333Y-24455371D01*
X107082349Y-24455371D01*
X107149388Y-24475056D01*
G37*
%TD.AperFunction*%
%TD*%
%TA.AperFunction,Conductor*%
%TO.N,/P6*%
G36*
X117948600Y-24504973D02*
G01*
X117994355Y-24557777D01*
X118004919Y-24621891D01*
X117996426Y-24705013D01*
X117996426Y-25930000D01*
X119234926Y-25930000D01*
X119301965Y-25949685D01*
X119347720Y-26002489D01*
X119358926Y-26054000D01*
X119358926Y-28354999D01*
X119524560Y-28354999D01*
X119524560Y-28355967D01*
X119588620Y-28371258D01*
X119637021Y-28421648D01*
X119651015Y-28478887D01*
X119650867Y-29771131D01*
X119631175Y-29838168D01*
X119578366Y-29883917D01*
X119524562Y-29894197D01*
X119524562Y-29895000D01*
X119358926Y-29895000D01*
X119358926Y-34244999D01*
X119524560Y-34244999D01*
X119524560Y-34246157D01*
X119587966Y-34261306D01*
X119636357Y-34311705D01*
X119650340Y-34368922D01*
X119650192Y-35661097D01*
X119630500Y-35728134D01*
X119577691Y-35773883D01*
X119524562Y-35784029D01*
X119524562Y-35785000D01*
X119358926Y-35785000D01*
X119358926Y-40134999D01*
X119524560Y-40134999D01*
X119524560Y-40136366D01*
X119587242Y-40151312D01*
X119635656Y-40201688D01*
X119649665Y-40258956D01*
X119649488Y-41801061D01*
X119629796Y-41868098D01*
X119576987Y-41913847D01*
X119524562Y-41923863D01*
X119524562Y-41925000D01*
X119358926Y-41925000D01*
X119358926Y-46274999D01*
X119524560Y-46274999D01*
X119524560Y-46276593D01*
X119586453Y-46291299D01*
X119634907Y-46341638D01*
X119648961Y-46398992D01*
X119648813Y-47691026D01*
X119629121Y-47758063D01*
X119576312Y-47803812D01*
X119524562Y-47813778D01*
X119524562Y-47815000D01*
X119358926Y-47815000D01*
X119358926Y-52164999D01*
X119524287Y-52164999D01*
X119591326Y-52184684D01*
X119637081Y-52237488D01*
X119648287Y-52289013D01*
X119648138Y-53581014D01*
X119628446Y-53648051D01*
X119575636Y-53693800D01*
X119524138Y-53705000D01*
X119358926Y-53705000D01*
X119358926Y-58054999D01*
X119523612Y-58054999D01*
X119590651Y-58074684D01*
X119636406Y-58127488D01*
X119647612Y-58179013D01*
X119647463Y-59471014D01*
X119627771Y-59538051D01*
X119574961Y-59583800D01*
X119523463Y-59595000D01*
X119358926Y-59595000D01*
X119358926Y-63944999D01*
X119522937Y-63944999D01*
X119589976Y-63964684D01*
X119635731Y-64017488D01*
X119646937Y-64069013D01*
X119646731Y-65861014D01*
X119627039Y-65928051D01*
X119574229Y-65973800D01*
X119522731Y-65985000D01*
X119358926Y-65985000D01*
X119358926Y-70334999D01*
X119522204Y-70334999D01*
X119589243Y-70354684D01*
X119634998Y-70407488D01*
X119646204Y-70459013D01*
X119646027Y-72001014D01*
X119626335Y-72068051D01*
X119573526Y-72113800D01*
X119522027Y-72125000D01*
X119358926Y-72125000D01*
X119358926Y-76474999D01*
X119521501Y-76474999D01*
X119588540Y-76494684D01*
X119634295Y-76547488D01*
X119645501Y-76599013D01*
X119645323Y-78141014D01*
X119625631Y-78208052D01*
X119572821Y-78253800D01*
X119521323Y-78265000D01*
X119358926Y-78265000D01*
X119358926Y-82614999D01*
X119520797Y-82614999D01*
X119587836Y-82634684D01*
X119633591Y-82687488D01*
X119644797Y-82739013D01*
X119644648Y-84031014D01*
X119624956Y-84098051D01*
X119572146Y-84143800D01*
X119520648Y-84155000D01*
X119358926Y-84155000D01*
X119358926Y-88504999D01*
X119520122Y-88504999D01*
X119587161Y-88524684D01*
X119632916Y-88577488D01*
X119644122Y-88629013D01*
X119644000Y-89685003D01*
X119624308Y-89752041D01*
X119607682Y-89772669D01*
X119605352Y-89774999D01*
X119605352Y-94124999D01*
X119607162Y-94126809D01*
X119640647Y-94188132D01*
X119643481Y-94214504D01*
X119643345Y-95405658D01*
X119623653Y-95472695D01*
X119607027Y-95493324D01*
X119605352Y-95494999D01*
X119605352Y-99844999D01*
X119606506Y-99846153D01*
X119639991Y-99907476D01*
X119642825Y-99933848D01*
X119642701Y-101026302D01*
X119623009Y-101093339D01*
X119606383Y-101113968D01*
X119605352Y-101114999D01*
X119605352Y-105464999D01*
X119605862Y-105465509D01*
X119639347Y-105526832D01*
X119642181Y-105553204D01*
X119642041Y-106776962D01*
X119622349Y-106843999D01*
X119605723Y-106864628D01*
X119605352Y-106864999D01*
X119605352Y-111215122D01*
X119638688Y-111276173D01*
X119641522Y-111302545D01*
X119641382Y-112527621D01*
X119621690Y-112594658D01*
X119605352Y-112614929D01*
X119605352Y-116965669D01*
X119638030Y-117025515D01*
X119640864Y-117051887D01*
X119640697Y-118498306D01*
X119621005Y-118565344D01*
X119605352Y-118584764D01*
X119605352Y-122936238D01*
X119637346Y-122994831D01*
X119640180Y-123021203D01*
X119640035Y-124278968D01*
X119620343Y-124346005D01*
X119605352Y-124364606D01*
X119605352Y-128716789D01*
X119636683Y-128774168D01*
X119639517Y-128800540D01*
X119639376Y-130034985D01*
X119619684Y-130102022D01*
X119610710Y-130113157D01*
X119610710Y-132416000D01*
X119591025Y-132483039D01*
X119538221Y-132528794D01*
X119486710Y-132540000D01*
X118248211Y-132540000D01*
X118248211Y-133764986D01*
X118258704Y-133867697D01*
X118289397Y-133960321D01*
X118291799Y-134030149D01*
X118256067Y-134090191D01*
X118193547Y-134121384D01*
X118172635Y-134123321D01*
X114000861Y-134155085D01*
X113933674Y-134135912D01*
X113887518Y-134083458D01*
X113877048Y-134014377D01*
X113882211Y-133992084D01*
X113923430Y-133867694D01*
X113923431Y-133867690D01*
X113933924Y-133764986D01*
X113933925Y-133764973D01*
X113933925Y-132540000D01*
X112695425Y-132540000D01*
X112628386Y-132520315D01*
X112582631Y-132467511D01*
X112571425Y-132416000D01*
X112571425Y-132040000D01*
X113071425Y-132040000D01*
X113933924Y-132040000D01*
X113933924Y-130815028D01*
X113933923Y-130815013D01*
X118248210Y-130815013D01*
X118248210Y-132040000D01*
X119110710Y-132040000D01*
X119110710Y-130115000D01*
X118948239Y-130115000D01*
X118948222Y-130115001D01*
X118845512Y-130125494D01*
X118679090Y-130180641D01*
X118679085Y-130180643D01*
X118529864Y-130272684D01*
X118405894Y-130396654D01*
X118313853Y-130545875D01*
X118313851Y-130545880D01*
X118258704Y-130712302D01*
X118258703Y-130712309D01*
X118248210Y-130815013D01*
X113933923Y-130815013D01*
X113923430Y-130712302D01*
X113868283Y-130545880D01*
X113868281Y-130545875D01*
X113776240Y-130396654D01*
X113652270Y-130272684D01*
X113503049Y-130180643D01*
X113503044Y-130180641D01*
X113336622Y-130125494D01*
X113336615Y-130125493D01*
X113233911Y-130115000D01*
X113071425Y-130115000D01*
X113071425Y-132040000D01*
X112571425Y-132040000D01*
X112571425Y-130115000D01*
X112408954Y-130115000D01*
X112408937Y-130115001D01*
X112306227Y-130125494D01*
X112169278Y-130170875D01*
X112099450Y-130173277D01*
X112039408Y-130137545D01*
X112008215Y-130075025D01*
X112006274Y-130053147D01*
X112006578Y-128780445D01*
X112026278Y-128713417D01*
X112079092Y-128667674D01*
X112148253Y-128657747D01*
X112169581Y-128662775D01*
X112295512Y-128704505D01*
X112295519Y-128704506D01*
X112398229Y-128714999D01*
X112560709Y-128714999D01*
X113060710Y-128714999D01*
X113223182Y-128714999D01*
X113223196Y-128714998D01*
X113325907Y-128704505D01*
X113492329Y-128649358D01*
X113492334Y-128649356D01*
X113641555Y-128557315D01*
X113765525Y-128433345D01*
X113857566Y-128284124D01*
X113857568Y-128284119D01*
X113912715Y-128117697D01*
X113912716Y-128117690D01*
X113923209Y-128014986D01*
X118242853Y-128014986D01*
X118253346Y-128117697D01*
X118308493Y-128284119D01*
X118308495Y-128284124D01*
X118400536Y-128433345D01*
X118524506Y-128557315D01*
X118673727Y-128649356D01*
X118673732Y-128649358D01*
X118840154Y-128704505D01*
X118840161Y-128704506D01*
X118942871Y-128714999D01*
X119105351Y-128714999D01*
X119105352Y-128714998D01*
X119105352Y-126790000D01*
X118242853Y-126790000D01*
X118242853Y-128014986D01*
X113923209Y-128014986D01*
X113923210Y-128014973D01*
X113923210Y-126790000D01*
X113060710Y-126790000D01*
X113060710Y-128714999D01*
X112560709Y-128714999D01*
X112560710Y-128714998D01*
X112560710Y-126290000D01*
X113060710Y-126290000D01*
X113923209Y-126290000D01*
X113923209Y-125065028D01*
X113923208Y-125065013D01*
X118242852Y-125065013D01*
X118242852Y-126290000D01*
X119105352Y-126290000D01*
X119105352Y-124365000D01*
X118942881Y-124365000D01*
X118942864Y-124365001D01*
X118840154Y-124375494D01*
X118673732Y-124430641D01*
X118673727Y-124430643D01*
X118524506Y-124522684D01*
X118400536Y-124646654D01*
X118308495Y-124795875D01*
X118308493Y-124795880D01*
X118253346Y-124962302D01*
X118253345Y-124962309D01*
X118242852Y-125065013D01*
X113923208Y-125065013D01*
X113912715Y-124962302D01*
X113857568Y-124795880D01*
X113857566Y-124795875D01*
X113765525Y-124646654D01*
X113641555Y-124522684D01*
X113492334Y-124430643D01*
X113492329Y-124430641D01*
X113325907Y-124375494D01*
X113325900Y-124375493D01*
X113223196Y-124365000D01*
X113060710Y-124365000D01*
X113060710Y-126290000D01*
X112560710Y-126290000D01*
X112560710Y-124365000D01*
X112398239Y-124365000D01*
X112398222Y-124365001D01*
X112295512Y-124375494D01*
X112170651Y-124416869D01*
X112100822Y-124419271D01*
X112040781Y-124383539D01*
X112009588Y-124321018D01*
X112007648Y-124299147D01*
X112007958Y-123000905D01*
X112027658Y-122933875D01*
X112080472Y-122888132D01*
X112149633Y-122878205D01*
X112170961Y-122883233D01*
X112295512Y-122924505D01*
X112295519Y-122924506D01*
X112398229Y-122934999D01*
X112560709Y-122934999D01*
X113060710Y-122934999D01*
X113223182Y-122934999D01*
X113223196Y-122934998D01*
X113325907Y-122924505D01*
X113492329Y-122869358D01*
X113492334Y-122869356D01*
X113641555Y-122777315D01*
X113765525Y-122653345D01*
X113857566Y-122504124D01*
X113857568Y-122504119D01*
X113912715Y-122337697D01*
X113912716Y-122337690D01*
X113923209Y-122234986D01*
X118242853Y-122234986D01*
X118253346Y-122337697D01*
X118308493Y-122504119D01*
X118308495Y-122504124D01*
X118400536Y-122653345D01*
X118524506Y-122777315D01*
X118673727Y-122869356D01*
X118673732Y-122869358D01*
X118840154Y-122924505D01*
X118840161Y-122924506D01*
X118942871Y-122934999D01*
X119105351Y-122934999D01*
X119105352Y-122934998D01*
X119105352Y-121010000D01*
X118242853Y-121010000D01*
X118242853Y-122234986D01*
X113923209Y-122234986D01*
X113923210Y-122234973D01*
X113923210Y-121010000D01*
X113060710Y-121010000D01*
X113060710Y-122934999D01*
X112560709Y-122934999D01*
X112560710Y-122934998D01*
X112560710Y-120510000D01*
X113060710Y-120510000D01*
X113923209Y-120510000D01*
X113923209Y-119285028D01*
X113923208Y-119285013D01*
X118242852Y-119285013D01*
X118242852Y-120510000D01*
X119105352Y-120510000D01*
X119105352Y-118585000D01*
X118942881Y-118585000D01*
X118942864Y-118585001D01*
X118840154Y-118595494D01*
X118673732Y-118650641D01*
X118673727Y-118650643D01*
X118524506Y-118742684D01*
X118400536Y-118866654D01*
X118308495Y-119015875D01*
X118308493Y-119015880D01*
X118253346Y-119182302D01*
X118253345Y-119182309D01*
X118242852Y-119285013D01*
X113923208Y-119285013D01*
X113912715Y-119182302D01*
X113857568Y-119015880D01*
X113857566Y-119015875D01*
X113765525Y-118866654D01*
X113641555Y-118742684D01*
X113492334Y-118650643D01*
X113492329Y-118650641D01*
X113325907Y-118595494D01*
X113325900Y-118595493D01*
X113223196Y-118585000D01*
X113060710Y-118585000D01*
X113060710Y-120510000D01*
X112560710Y-120510000D01*
X112560710Y-118585000D01*
X112398239Y-118585000D01*
X112398222Y-118585001D01*
X112295512Y-118595494D01*
X112172031Y-118636412D01*
X112102203Y-118638814D01*
X112042161Y-118603082D01*
X112010968Y-118540562D01*
X112009028Y-118518687D01*
X112009383Y-117031377D01*
X112029083Y-116964347D01*
X112081897Y-116918604D01*
X112151058Y-116908677D01*
X112172386Y-116913705D01*
X112295512Y-116954505D01*
X112295519Y-116954506D01*
X112398229Y-116964999D01*
X112560709Y-116964999D01*
X113060710Y-116964999D01*
X113223182Y-116964999D01*
X113223196Y-116964998D01*
X113325907Y-116954505D01*
X113492329Y-116899358D01*
X113492334Y-116899356D01*
X113641555Y-116807315D01*
X113765525Y-116683345D01*
X113857566Y-116534124D01*
X113857568Y-116534119D01*
X113912715Y-116367697D01*
X113912716Y-116367690D01*
X113923209Y-116264986D01*
X118242853Y-116264986D01*
X118253346Y-116367697D01*
X118308493Y-116534119D01*
X118308495Y-116534124D01*
X118400536Y-116683345D01*
X118524506Y-116807315D01*
X118673727Y-116899356D01*
X118673732Y-116899358D01*
X118840154Y-116954505D01*
X118840161Y-116954506D01*
X118942871Y-116964999D01*
X119105351Y-116964999D01*
X119105352Y-116964998D01*
X119105352Y-115040000D01*
X118242853Y-115040000D01*
X118242853Y-116264986D01*
X113923209Y-116264986D01*
X113923210Y-116264973D01*
X113923210Y-115040000D01*
X113060710Y-115040000D01*
X113060710Y-116964999D01*
X112560709Y-116964999D01*
X112560710Y-116964998D01*
X112560710Y-114540000D01*
X113060710Y-114540000D01*
X113923209Y-114540000D01*
X113923209Y-113315028D01*
X113923208Y-113315013D01*
X118242852Y-113315013D01*
X118242852Y-114540000D01*
X119105352Y-114540000D01*
X119105352Y-112615000D01*
X118942881Y-112615000D01*
X118942864Y-112615001D01*
X118840154Y-112625494D01*
X118673732Y-112680641D01*
X118673727Y-112680643D01*
X118524506Y-112772684D01*
X118400536Y-112896654D01*
X118308495Y-113045875D01*
X118308493Y-113045880D01*
X118253346Y-113212302D01*
X118253345Y-113212309D01*
X118242852Y-113315013D01*
X113923208Y-113315013D01*
X113912715Y-113212302D01*
X113857568Y-113045880D01*
X113857566Y-113045875D01*
X113765525Y-112896654D01*
X113641555Y-112772684D01*
X113492334Y-112680643D01*
X113492329Y-112680641D01*
X113325907Y-112625494D01*
X113325900Y-112625493D01*
X113223196Y-112615000D01*
X113060710Y-112615000D01*
X113060710Y-114540000D01*
X112560710Y-114540000D01*
X112560710Y-112615000D01*
X112398239Y-112615000D01*
X112398222Y-112615001D01*
X112295512Y-112625494D01*
X112173457Y-112665939D01*
X112103628Y-112668341D01*
X112043586Y-112632609D01*
X112012394Y-112570088D01*
X112010453Y-112548203D01*
X112010458Y-112527621D01*
X112010755Y-111281834D01*
X112030456Y-111214802D01*
X112083270Y-111169059D01*
X112152431Y-111159132D01*
X112173759Y-111164160D01*
X112295512Y-111204505D01*
X112295519Y-111204506D01*
X112398229Y-111214999D01*
X112560709Y-111214999D01*
X113060710Y-111214999D01*
X113223182Y-111214999D01*
X113223196Y-111214998D01*
X113325907Y-111204505D01*
X113492329Y-111149358D01*
X113492334Y-111149356D01*
X113641555Y-111057315D01*
X113765525Y-110933345D01*
X113857566Y-110784124D01*
X113857568Y-110784119D01*
X113912715Y-110617697D01*
X113912716Y-110617690D01*
X113923209Y-110514986D01*
X118242853Y-110514986D01*
X118253346Y-110617697D01*
X118308493Y-110784119D01*
X118308495Y-110784124D01*
X118400536Y-110933345D01*
X118524506Y-111057315D01*
X118673727Y-111149356D01*
X118673732Y-111149358D01*
X118840154Y-111204505D01*
X118840161Y-111204506D01*
X118942871Y-111214999D01*
X119105351Y-111214999D01*
X119105352Y-111214998D01*
X119105352Y-109290000D01*
X118242853Y-109290000D01*
X118242853Y-110514986D01*
X113923209Y-110514986D01*
X113923210Y-110514973D01*
X113923210Y-109290000D01*
X113060710Y-109290000D01*
X113060710Y-111214999D01*
X112560709Y-111214999D01*
X112560710Y-111214998D01*
X112560710Y-108790000D01*
X113060710Y-108790000D01*
X113923209Y-108790000D01*
X113923209Y-107565028D01*
X113923208Y-107565013D01*
X118242852Y-107565013D01*
X118242852Y-108790000D01*
X119105352Y-108790000D01*
X119105352Y-106865000D01*
X118942881Y-106865000D01*
X118942864Y-106865001D01*
X118840154Y-106875494D01*
X118673732Y-106930641D01*
X118673727Y-106930643D01*
X118524506Y-107022684D01*
X118400536Y-107146654D01*
X118308495Y-107295875D01*
X118308493Y-107295880D01*
X118253346Y-107462302D01*
X118253345Y-107462309D01*
X118242852Y-107565013D01*
X113923208Y-107565013D01*
X113912715Y-107462302D01*
X113857568Y-107295880D01*
X113857566Y-107295875D01*
X113765525Y-107146654D01*
X113641555Y-107022684D01*
X113492334Y-106930643D01*
X113492329Y-106930641D01*
X113325907Y-106875494D01*
X113325900Y-106875493D01*
X113223196Y-106865000D01*
X113060710Y-106865000D01*
X113060710Y-108790000D01*
X112560710Y-108790000D01*
X112560710Y-106865000D01*
X112398239Y-106865000D01*
X112398222Y-106865001D01*
X112295512Y-106875494D01*
X112174828Y-106915485D01*
X112104999Y-106917887D01*
X112044958Y-106882155D01*
X112013765Y-106819635D01*
X112011825Y-106797770D01*
X112012127Y-105532286D01*
X112031828Y-105465256D01*
X112084643Y-105419513D01*
X112153803Y-105409586D01*
X112175131Y-105414614D01*
X112295512Y-105454505D01*
X112295519Y-105454506D01*
X112398229Y-105464999D01*
X112560709Y-105464999D01*
X113060710Y-105464999D01*
X113223182Y-105464999D01*
X113223196Y-105464998D01*
X113325907Y-105454505D01*
X113492329Y-105399358D01*
X113492334Y-105399356D01*
X113641555Y-105307315D01*
X113765525Y-105183345D01*
X113857566Y-105034124D01*
X113857568Y-105034119D01*
X113912715Y-104867697D01*
X113912716Y-104867690D01*
X113923209Y-104764986D01*
X118242853Y-104764986D01*
X118253346Y-104867697D01*
X118308493Y-105034119D01*
X118308495Y-105034124D01*
X118400536Y-105183345D01*
X118524506Y-105307315D01*
X118673727Y-105399356D01*
X118673732Y-105399358D01*
X118840154Y-105454505D01*
X118840161Y-105454506D01*
X118942871Y-105464999D01*
X119105351Y-105464999D01*
X119105352Y-105464998D01*
X119105352Y-103540000D01*
X118242853Y-103540000D01*
X118242853Y-104764986D01*
X113923209Y-104764986D01*
X113923210Y-104764973D01*
X113923210Y-103540000D01*
X113060710Y-103540000D01*
X113060710Y-105464999D01*
X112560709Y-105464999D01*
X112560710Y-105464998D01*
X112560710Y-103040000D01*
X113060710Y-103040000D01*
X113923209Y-103040000D01*
X113923209Y-101815028D01*
X113923208Y-101815013D01*
X118242852Y-101815013D01*
X118242852Y-103040000D01*
X119105352Y-103040000D01*
X119105352Y-101115000D01*
X118942881Y-101115000D01*
X118942864Y-101115001D01*
X118840154Y-101125494D01*
X118673732Y-101180641D01*
X118673727Y-101180643D01*
X118524506Y-101272684D01*
X118400536Y-101396654D01*
X118308495Y-101545875D01*
X118308493Y-101545880D01*
X118253346Y-101712302D01*
X118253345Y-101712309D01*
X118242852Y-101815013D01*
X113923208Y-101815013D01*
X113912715Y-101712302D01*
X113857568Y-101545880D01*
X113857566Y-101545875D01*
X113765525Y-101396654D01*
X113641555Y-101272684D01*
X113492334Y-101180643D01*
X113492329Y-101180641D01*
X113325907Y-101125494D01*
X113325900Y-101125493D01*
X113223196Y-101115000D01*
X113060710Y-101115000D01*
X113060710Y-103040000D01*
X112560710Y-103040000D01*
X112560710Y-101115000D01*
X112398239Y-101115000D01*
X112398222Y-101115001D01*
X112295512Y-101125494D01*
X112176201Y-101165030D01*
X112106372Y-101167432D01*
X112046331Y-101131700D01*
X112015138Y-101069179D01*
X112013198Y-101047311D01*
X112013469Y-99912733D01*
X112033170Y-99845701D01*
X112085985Y-99799958D01*
X112155145Y-99790031D01*
X112176473Y-99795059D01*
X112295512Y-99834505D01*
X112295519Y-99834506D01*
X112398229Y-99844999D01*
X112560709Y-99844999D01*
X113060710Y-99844999D01*
X113223182Y-99844999D01*
X113223196Y-99844998D01*
X113325907Y-99834505D01*
X113492329Y-99779358D01*
X113492334Y-99779356D01*
X113641555Y-99687315D01*
X113765525Y-99563345D01*
X113857566Y-99414124D01*
X113857568Y-99414119D01*
X113912715Y-99247697D01*
X113912716Y-99247690D01*
X113923209Y-99144986D01*
X118242853Y-99144986D01*
X118253346Y-99247697D01*
X118308493Y-99414119D01*
X118308495Y-99414124D01*
X118400536Y-99563345D01*
X118524506Y-99687315D01*
X118673727Y-99779356D01*
X118673732Y-99779358D01*
X118840154Y-99834505D01*
X118840161Y-99834506D01*
X118942871Y-99844999D01*
X119105351Y-99844999D01*
X119105352Y-99844998D01*
X119105352Y-97920000D01*
X118242853Y-97920000D01*
X118242853Y-99144986D01*
X113923209Y-99144986D01*
X113923210Y-99144973D01*
X113923210Y-97920000D01*
X113060710Y-97920000D01*
X113060710Y-99844999D01*
X112560709Y-99844999D01*
X112560710Y-99844998D01*
X112560710Y-97420000D01*
X113060710Y-97420000D01*
X113923209Y-97420000D01*
X113923209Y-96195028D01*
X113923208Y-96195013D01*
X118242852Y-96195013D01*
X118242852Y-97420000D01*
X119105352Y-97420000D01*
X119105352Y-95495000D01*
X118942881Y-95495000D01*
X118942864Y-95495001D01*
X118840154Y-95505494D01*
X118673732Y-95560641D01*
X118673727Y-95560643D01*
X118524506Y-95652684D01*
X118400536Y-95776654D01*
X118308495Y-95925875D01*
X118308493Y-95925880D01*
X118253346Y-96092302D01*
X118253345Y-96092309D01*
X118242852Y-96195013D01*
X113923208Y-96195013D01*
X113912715Y-96092302D01*
X113857568Y-95925880D01*
X113857566Y-95925875D01*
X113765525Y-95776654D01*
X113641555Y-95652684D01*
X113492334Y-95560643D01*
X113492329Y-95560641D01*
X113325907Y-95505494D01*
X113325900Y-95505493D01*
X113223196Y-95495000D01*
X113060710Y-95495000D01*
X113060710Y-97420000D01*
X112560710Y-97420000D01*
X112560710Y-95495000D01*
X112398239Y-95495000D01*
X112398222Y-95495001D01*
X112295512Y-95505494D01*
X112177543Y-95544585D01*
X112107714Y-95546987D01*
X112047672Y-95511255D01*
X112016480Y-95448734D01*
X112014540Y-95426861D01*
X112014834Y-94193184D01*
X112034535Y-94126153D01*
X112087350Y-94080410D01*
X112156510Y-94070483D01*
X112177838Y-94075511D01*
X112295512Y-94114505D01*
X112295519Y-94114506D01*
X112398229Y-94124999D01*
X112560709Y-94124999D01*
X113060710Y-94124999D01*
X113223182Y-94124999D01*
X113223196Y-94124998D01*
X113325907Y-94114505D01*
X113492329Y-94059358D01*
X113492334Y-94059356D01*
X113641555Y-93967315D01*
X113765525Y-93843345D01*
X113857566Y-93694124D01*
X113857568Y-93694119D01*
X113912715Y-93527697D01*
X113912716Y-93527690D01*
X113923209Y-93424986D01*
X118242853Y-93424986D01*
X118253346Y-93527697D01*
X118308493Y-93694119D01*
X118308495Y-93694124D01*
X118400536Y-93843345D01*
X118524506Y-93967315D01*
X118673727Y-94059356D01*
X118673732Y-94059358D01*
X118840154Y-94114505D01*
X118840161Y-94114506D01*
X118942871Y-94124999D01*
X119105351Y-94124999D01*
X119105352Y-94124998D01*
X119105352Y-92200000D01*
X118242853Y-92200000D01*
X118242853Y-93424986D01*
X113923209Y-93424986D01*
X113923210Y-93424973D01*
X113923210Y-92200000D01*
X113060710Y-92200000D01*
X113060710Y-94124999D01*
X112560709Y-94124999D01*
X112560710Y-94124998D01*
X112560710Y-91700000D01*
X113060710Y-91700000D01*
X113923209Y-91700000D01*
X113923209Y-90475028D01*
X113923208Y-90475013D01*
X118242852Y-90475013D01*
X118242852Y-91700000D01*
X119105352Y-91700000D01*
X119105352Y-89775000D01*
X118942881Y-89775000D01*
X118942864Y-89775001D01*
X118840154Y-89785494D01*
X118673732Y-89840641D01*
X118673727Y-89840643D01*
X118524506Y-89932684D01*
X118400536Y-90056654D01*
X118308495Y-90205875D01*
X118308493Y-90205880D01*
X118253346Y-90372302D01*
X118253345Y-90372309D01*
X118242852Y-90475013D01*
X113923208Y-90475013D01*
X113912715Y-90372302D01*
X113857568Y-90205880D01*
X113857566Y-90205875D01*
X113765525Y-90056654D01*
X113641555Y-89932684D01*
X113492334Y-89840643D01*
X113492329Y-89840641D01*
X113325907Y-89785494D01*
X113325900Y-89785493D01*
X113223196Y-89775000D01*
X113060710Y-89775000D01*
X113060710Y-91700000D01*
X112560710Y-91700000D01*
X112560710Y-89775000D01*
X112398239Y-89775000D01*
X112398222Y-89775001D01*
X112295512Y-89785494D01*
X112178908Y-89824133D01*
X112109079Y-89826535D01*
X112049038Y-89790803D01*
X112017845Y-89728282D01*
X112015905Y-89706415D01*
X112016163Y-88624226D01*
X112035864Y-88557196D01*
X112088679Y-88511453D01*
X112152767Y-88500902D01*
X112192876Y-88504999D01*
X112355354Y-88504999D01*
X112855355Y-88504999D01*
X113017827Y-88504999D01*
X113017841Y-88504998D01*
X113120552Y-88494505D01*
X113286974Y-88439358D01*
X113286979Y-88439356D01*
X113436200Y-88347315D01*
X113560170Y-88223345D01*
X113652211Y-88074124D01*
X113652213Y-88074119D01*
X113707360Y-87907697D01*
X113707361Y-87907690D01*
X113717854Y-87804986D01*
X117996427Y-87804986D01*
X118006920Y-87907697D01*
X118062067Y-88074119D01*
X118062069Y-88074124D01*
X118154110Y-88223345D01*
X118278080Y-88347315D01*
X118427301Y-88439356D01*
X118427306Y-88439358D01*
X118593728Y-88494505D01*
X118593735Y-88494506D01*
X118696445Y-88504999D01*
X118858925Y-88504999D01*
X118858926Y-88504998D01*
X118858926Y-86580000D01*
X117996427Y-86580000D01*
X117996427Y-87804986D01*
X113717854Y-87804986D01*
X113717855Y-87804973D01*
X113717855Y-86580000D01*
X112855355Y-86580000D01*
X112855355Y-88504999D01*
X112355354Y-88504999D01*
X112355355Y-88504998D01*
X112355355Y-86080000D01*
X112855355Y-86080000D01*
X113717854Y-86080000D01*
X113717854Y-84855028D01*
X113717853Y-84855013D01*
X117996426Y-84855013D01*
X117996426Y-86080000D01*
X118858926Y-86080000D01*
X118858926Y-84155000D01*
X118696455Y-84155000D01*
X118696438Y-84155001D01*
X118593728Y-84165494D01*
X118427306Y-84220641D01*
X118427301Y-84220643D01*
X118278080Y-84312684D01*
X118154110Y-84436654D01*
X118062069Y-84585875D01*
X118062067Y-84585880D01*
X118006920Y-84752302D01*
X118006919Y-84752309D01*
X117996426Y-84855013D01*
X113717853Y-84855013D01*
X113707360Y-84752302D01*
X113652213Y-84585880D01*
X113652211Y-84585875D01*
X113560170Y-84436654D01*
X113436200Y-84312684D01*
X113286979Y-84220643D01*
X113286974Y-84220641D01*
X113120552Y-84165494D01*
X113120545Y-84165493D01*
X113017841Y-84155000D01*
X112855355Y-84155000D01*
X112855355Y-86080000D01*
X112355355Y-86080000D01*
X112355355Y-84155000D01*
X112192884Y-84155000D01*
X112192862Y-84155002D01*
X112153858Y-84158986D01*
X112085165Y-84146215D01*
X112034282Y-84098334D01*
X112017259Y-84035602D01*
X112017569Y-82734370D01*
X112037270Y-82667339D01*
X112090084Y-82621596D01*
X112154175Y-82611045D01*
X112192878Y-82614999D01*
X112355354Y-82614999D01*
X112855355Y-82614999D01*
X113017827Y-82614999D01*
X113017841Y-82614998D01*
X113120552Y-82604505D01*
X113286974Y-82549358D01*
X113286979Y-82549356D01*
X113436200Y-82457315D01*
X113560170Y-82333345D01*
X113652211Y-82184124D01*
X113652213Y-82184119D01*
X113707360Y-82017697D01*
X113707361Y-82017690D01*
X113717854Y-81914986D01*
X117996427Y-81914986D01*
X118006920Y-82017697D01*
X118062067Y-82184119D01*
X118062069Y-82184124D01*
X118154110Y-82333345D01*
X118278080Y-82457315D01*
X118427301Y-82549356D01*
X118427306Y-82549358D01*
X118593728Y-82604505D01*
X118593735Y-82604506D01*
X118696445Y-82614999D01*
X118858925Y-82614999D01*
X118858926Y-82614998D01*
X118858926Y-80690000D01*
X117996427Y-80690000D01*
X117996427Y-81914986D01*
X113717854Y-81914986D01*
X113717855Y-81914973D01*
X113717855Y-80690000D01*
X112855355Y-80690000D01*
X112855355Y-82614999D01*
X112355354Y-82614999D01*
X112355355Y-82614998D01*
X112355355Y-80190000D01*
X112855355Y-80190000D01*
X113717854Y-80190000D01*
X113717854Y-78965028D01*
X113717853Y-78965013D01*
X117996426Y-78965013D01*
X117996426Y-80190000D01*
X118858926Y-80190000D01*
X118858926Y-78265000D01*
X118696455Y-78265000D01*
X118696438Y-78265001D01*
X118593728Y-78275494D01*
X118427306Y-78330641D01*
X118427301Y-78330643D01*
X118278080Y-78422684D01*
X118154110Y-78546654D01*
X118062069Y-78695875D01*
X118062067Y-78695880D01*
X118006920Y-78862302D01*
X118006919Y-78862309D01*
X117996426Y-78965013D01*
X113717853Y-78965013D01*
X113707360Y-78862302D01*
X113652213Y-78695880D01*
X113652211Y-78695875D01*
X113560170Y-78546654D01*
X113436200Y-78422684D01*
X113286979Y-78330643D01*
X113286974Y-78330641D01*
X113120552Y-78275494D01*
X113120545Y-78275493D01*
X113017841Y-78265000D01*
X112855355Y-78265000D01*
X112855355Y-80190000D01*
X112355355Y-80190000D01*
X112355355Y-78265000D01*
X112192884Y-78265000D01*
X112192860Y-78265002D01*
X112155263Y-78268842D01*
X112086570Y-78256071D01*
X112035687Y-78208189D01*
X112018665Y-78145458D01*
X112019035Y-76594521D01*
X112038736Y-76527489D01*
X112091551Y-76481746D01*
X112155640Y-76471195D01*
X112192877Y-76474999D01*
X112355354Y-76474999D01*
X112855355Y-76474999D01*
X113017827Y-76474999D01*
X113017841Y-76474998D01*
X113120552Y-76464505D01*
X113286974Y-76409358D01*
X113286979Y-76409356D01*
X113436200Y-76317315D01*
X113560170Y-76193345D01*
X113652211Y-76044124D01*
X113652213Y-76044119D01*
X113707360Y-75877697D01*
X113707361Y-75877690D01*
X113717854Y-75774986D01*
X117996427Y-75774986D01*
X118006920Y-75877697D01*
X118062067Y-76044119D01*
X118062069Y-76044124D01*
X118154110Y-76193345D01*
X118278080Y-76317315D01*
X118427301Y-76409356D01*
X118427306Y-76409358D01*
X118593728Y-76464505D01*
X118593735Y-76464506D01*
X118696445Y-76474999D01*
X118858925Y-76474999D01*
X118858926Y-76474998D01*
X118858926Y-74550000D01*
X117996427Y-74550000D01*
X117996427Y-75774986D01*
X113717854Y-75774986D01*
X113717855Y-75774973D01*
X113717855Y-74550000D01*
X112855355Y-74550000D01*
X112855355Y-76474999D01*
X112355354Y-76474999D01*
X112355355Y-76474998D01*
X112355355Y-74050000D01*
X112855355Y-74050000D01*
X113717854Y-74050000D01*
X113717854Y-72825028D01*
X113717853Y-72825013D01*
X117996426Y-72825013D01*
X117996426Y-74050000D01*
X118858926Y-74050000D01*
X118858926Y-72125000D01*
X118696455Y-72125000D01*
X118696438Y-72125001D01*
X118593728Y-72135494D01*
X118427306Y-72190641D01*
X118427301Y-72190643D01*
X118278080Y-72282684D01*
X118154110Y-72406654D01*
X118062069Y-72555875D01*
X118062067Y-72555880D01*
X118006920Y-72722302D01*
X118006919Y-72722309D01*
X117996426Y-72825013D01*
X113717853Y-72825013D01*
X113707360Y-72722302D01*
X113652213Y-72555880D01*
X113652211Y-72555875D01*
X113560170Y-72406654D01*
X113436200Y-72282684D01*
X113286979Y-72190643D01*
X113286974Y-72190641D01*
X113120552Y-72135494D01*
X113120545Y-72135493D01*
X113017841Y-72125000D01*
X112855355Y-72125000D01*
X112855355Y-74050000D01*
X112355355Y-74050000D01*
X112355355Y-72125000D01*
X112192884Y-72125000D01*
X112192865Y-72125001D01*
X112156731Y-72128693D01*
X112088038Y-72115923D01*
X112037154Y-72068042D01*
X112020130Y-72005308D01*
X112020501Y-70454669D01*
X112040201Y-70387639D01*
X112093015Y-70341896D01*
X112157104Y-70331345D01*
X112192876Y-70334999D01*
X112355354Y-70334999D01*
X112855355Y-70334999D01*
X113017827Y-70334999D01*
X113017841Y-70334998D01*
X113120552Y-70324505D01*
X113286974Y-70269358D01*
X113286979Y-70269356D01*
X113436200Y-70177315D01*
X113560170Y-70053345D01*
X113652211Y-69904124D01*
X113652213Y-69904119D01*
X113707360Y-69737697D01*
X113707361Y-69737690D01*
X113717854Y-69634986D01*
X117996427Y-69634986D01*
X118006920Y-69737697D01*
X118062067Y-69904119D01*
X118062069Y-69904124D01*
X118154110Y-70053345D01*
X118278080Y-70177315D01*
X118427301Y-70269356D01*
X118427306Y-70269358D01*
X118593728Y-70324505D01*
X118593735Y-70324506D01*
X118696445Y-70334999D01*
X118858925Y-70334999D01*
X118858926Y-70334998D01*
X118858926Y-68410000D01*
X117996427Y-68410000D01*
X117996427Y-69634986D01*
X113717854Y-69634986D01*
X113717855Y-69634973D01*
X113717855Y-68410000D01*
X112855355Y-68410000D01*
X112855355Y-70334999D01*
X112355354Y-70334999D01*
X112355355Y-70334998D01*
X112355355Y-67910000D01*
X112855355Y-67910000D01*
X113717854Y-67910000D01*
X113717854Y-66685028D01*
X113717853Y-66685013D01*
X117996426Y-66685013D01*
X117996426Y-67910000D01*
X118858926Y-67910000D01*
X118858926Y-65985000D01*
X118696455Y-65985000D01*
X118696438Y-65985001D01*
X118593728Y-65995494D01*
X118427306Y-66050641D01*
X118427301Y-66050643D01*
X118278080Y-66142684D01*
X118154110Y-66266654D01*
X118062069Y-66415875D01*
X118062067Y-66415880D01*
X118006920Y-66582302D01*
X118006919Y-66582309D01*
X117996426Y-66685013D01*
X113717853Y-66685013D01*
X113707360Y-66582302D01*
X113652213Y-66415880D01*
X113652211Y-66415875D01*
X113560170Y-66266654D01*
X113436200Y-66142684D01*
X113286979Y-66050643D01*
X113286974Y-66050641D01*
X113120552Y-65995494D01*
X113120545Y-65995493D01*
X113017841Y-65985000D01*
X112855355Y-65985000D01*
X112855355Y-67910000D01*
X112355355Y-67910000D01*
X112355355Y-65985000D01*
X112192884Y-65985000D01*
X112192862Y-65985002D01*
X112158196Y-65988543D01*
X112089503Y-65975773D01*
X112038620Y-65927891D01*
X112021596Y-65865157D01*
X112022026Y-64064824D01*
X112041726Y-63997795D01*
X112094540Y-63952052D01*
X112158628Y-63941501D01*
X112192875Y-63944999D01*
X112355354Y-63944999D01*
X112855355Y-63944999D01*
X113017827Y-63944999D01*
X113017841Y-63944998D01*
X113120552Y-63934505D01*
X113286974Y-63879358D01*
X113286979Y-63879356D01*
X113436200Y-63787315D01*
X113560170Y-63663345D01*
X113652211Y-63514124D01*
X113652213Y-63514119D01*
X113707360Y-63347697D01*
X113707361Y-63347690D01*
X113717854Y-63244986D01*
X117996427Y-63244986D01*
X118006920Y-63347697D01*
X118062067Y-63514119D01*
X118062069Y-63514124D01*
X118154110Y-63663345D01*
X118278080Y-63787315D01*
X118427301Y-63879356D01*
X118427306Y-63879358D01*
X118593728Y-63934505D01*
X118593735Y-63934506D01*
X118696445Y-63944999D01*
X118858925Y-63944999D01*
X118858926Y-63944998D01*
X118858926Y-62020000D01*
X117996427Y-62020000D01*
X117996427Y-63244986D01*
X113717854Y-63244986D01*
X113717855Y-63244973D01*
X113717855Y-62020000D01*
X112855355Y-62020000D01*
X112855355Y-63944999D01*
X112355354Y-63944999D01*
X112355355Y-63944998D01*
X112355355Y-61520000D01*
X112855355Y-61520000D01*
X113717854Y-61520000D01*
X113717854Y-60295028D01*
X113717853Y-60295013D01*
X117996426Y-60295013D01*
X117996426Y-61520000D01*
X118858926Y-61520000D01*
X118858926Y-59595000D01*
X118696455Y-59595000D01*
X118696438Y-59595001D01*
X118593728Y-59605494D01*
X118427306Y-59660641D01*
X118427301Y-59660643D01*
X118278080Y-59752684D01*
X118154110Y-59876654D01*
X118062069Y-60025875D01*
X118062067Y-60025880D01*
X118006920Y-60192302D01*
X118006919Y-60192309D01*
X117996426Y-60295013D01*
X113717853Y-60295013D01*
X113707360Y-60192302D01*
X113652213Y-60025880D01*
X113652211Y-60025875D01*
X113560170Y-59876654D01*
X113436200Y-59752684D01*
X113286979Y-59660643D01*
X113286974Y-59660641D01*
X113120552Y-59605494D01*
X113120545Y-59605493D01*
X113017841Y-59595000D01*
X112855355Y-59595000D01*
X112855355Y-61520000D01*
X112355355Y-61520000D01*
X112355355Y-59595000D01*
X112192884Y-59595000D01*
X112192860Y-59595002D01*
X112159720Y-59598387D01*
X112091028Y-59585616D01*
X112040144Y-59537735D01*
X112023121Y-59475002D01*
X112023432Y-58174967D01*
X112043132Y-58107938D01*
X112095946Y-58062195D01*
X112160037Y-58051644D01*
X112192878Y-58054999D01*
X112355354Y-58054999D01*
X112855355Y-58054999D01*
X113017827Y-58054999D01*
X113017841Y-58054998D01*
X113120552Y-58044505D01*
X113286974Y-57989358D01*
X113286979Y-57989356D01*
X113436200Y-57897315D01*
X113560170Y-57773345D01*
X113652211Y-57624124D01*
X113652213Y-57624119D01*
X113707360Y-57457697D01*
X113707361Y-57457690D01*
X113717854Y-57354986D01*
X117996427Y-57354986D01*
X118006920Y-57457697D01*
X118062067Y-57624119D01*
X118062069Y-57624124D01*
X118154110Y-57773345D01*
X118278080Y-57897315D01*
X118427301Y-57989356D01*
X118427306Y-57989358D01*
X118593728Y-58044505D01*
X118593735Y-58044506D01*
X118696445Y-58054999D01*
X118858925Y-58054999D01*
X118858926Y-58054998D01*
X118858926Y-56130000D01*
X117996427Y-56130000D01*
X117996427Y-57354986D01*
X113717854Y-57354986D01*
X113717855Y-57354973D01*
X113717855Y-56130000D01*
X112855355Y-56130000D01*
X112855355Y-58054999D01*
X112355354Y-58054999D01*
X112355355Y-58054998D01*
X112355355Y-55630000D01*
X112855355Y-55630000D01*
X113717854Y-55630000D01*
X113717854Y-54405028D01*
X113717853Y-54405013D01*
X117996426Y-54405013D01*
X117996426Y-55630000D01*
X118858926Y-55630000D01*
X118858926Y-53705000D01*
X118696455Y-53705000D01*
X118696438Y-53705001D01*
X118593728Y-53715494D01*
X118427306Y-53770641D01*
X118427301Y-53770643D01*
X118278080Y-53862684D01*
X118154110Y-53986654D01*
X118062069Y-54135875D01*
X118062067Y-54135880D01*
X118006920Y-54302302D01*
X118006919Y-54302309D01*
X117996426Y-54405013D01*
X113717853Y-54405013D01*
X113707360Y-54302302D01*
X113652213Y-54135880D01*
X113652211Y-54135875D01*
X113560170Y-53986654D01*
X113436200Y-53862684D01*
X113286979Y-53770643D01*
X113286974Y-53770641D01*
X113120552Y-53715494D01*
X113120545Y-53715493D01*
X113017841Y-53705000D01*
X112855355Y-53705000D01*
X112855355Y-55630000D01*
X112355355Y-55630000D01*
X112355355Y-53705000D01*
X112192884Y-53705000D01*
X112192865Y-53705001D01*
X112161128Y-53708244D01*
X112092436Y-53695474D01*
X112041551Y-53647593D01*
X112024527Y-53584859D01*
X112024838Y-52285112D01*
X112044538Y-52218082D01*
X112097352Y-52172339D01*
X112161441Y-52161788D01*
X112192876Y-52164999D01*
X112355354Y-52164999D01*
X112855355Y-52164999D01*
X113017827Y-52164999D01*
X113017841Y-52164998D01*
X113120552Y-52154505D01*
X113286974Y-52099358D01*
X113286979Y-52099356D01*
X113436200Y-52007315D01*
X113560170Y-51883345D01*
X113652211Y-51734124D01*
X113652213Y-51734119D01*
X113707360Y-51567697D01*
X113707361Y-51567690D01*
X113717854Y-51464986D01*
X117996427Y-51464986D01*
X118006920Y-51567697D01*
X118062067Y-51734119D01*
X118062069Y-51734124D01*
X118154110Y-51883345D01*
X118278080Y-52007315D01*
X118427301Y-52099356D01*
X118427306Y-52099358D01*
X118593728Y-52154505D01*
X118593735Y-52154506D01*
X118696445Y-52164999D01*
X118858925Y-52164999D01*
X118858926Y-52164998D01*
X118858926Y-50240000D01*
X117996427Y-50240000D01*
X117996427Y-51464986D01*
X113717854Y-51464986D01*
X113717855Y-51464973D01*
X113717855Y-50240000D01*
X112855355Y-50240000D01*
X112855355Y-52164999D01*
X112355354Y-52164999D01*
X112355355Y-52164998D01*
X112355355Y-49740000D01*
X112855355Y-49740000D01*
X113717854Y-49740000D01*
X113717854Y-48515028D01*
X113717853Y-48515013D01*
X117996426Y-48515013D01*
X117996426Y-49740000D01*
X118858926Y-49740000D01*
X118858926Y-47815000D01*
X118696455Y-47815000D01*
X118696438Y-47815001D01*
X118593728Y-47825494D01*
X118427306Y-47880641D01*
X118427301Y-47880643D01*
X118278080Y-47972684D01*
X118154110Y-48096654D01*
X118062069Y-48245875D01*
X118062067Y-48245880D01*
X118006920Y-48412302D01*
X118006919Y-48412309D01*
X117996426Y-48515013D01*
X113717853Y-48515013D01*
X113707360Y-48412302D01*
X113652213Y-48245880D01*
X113652211Y-48245875D01*
X113560170Y-48096654D01*
X113436200Y-47972684D01*
X113286979Y-47880643D01*
X113286974Y-47880641D01*
X113120552Y-47825494D01*
X113120545Y-47825493D01*
X113017841Y-47815000D01*
X112855355Y-47815000D01*
X112855355Y-49740000D01*
X112355355Y-49740000D01*
X112355355Y-47815000D01*
X112192884Y-47815000D01*
X112192862Y-47815002D01*
X112162533Y-47818100D01*
X112093840Y-47805330D01*
X112042957Y-47757448D01*
X112025933Y-47694715D01*
X112026244Y-46395256D01*
X112045944Y-46328226D01*
X112098758Y-46282483D01*
X112162846Y-46271932D01*
X112192874Y-46274999D01*
X112355354Y-46274999D01*
X112855355Y-46274999D01*
X113017827Y-46274999D01*
X113017841Y-46274998D01*
X113120552Y-46264505D01*
X113286974Y-46209358D01*
X113286979Y-46209356D01*
X113436200Y-46117315D01*
X113560170Y-45993345D01*
X113652211Y-45844124D01*
X113652213Y-45844119D01*
X113707360Y-45677697D01*
X113707361Y-45677690D01*
X113717854Y-45574986D01*
X117996427Y-45574986D01*
X118006920Y-45677697D01*
X118062067Y-45844119D01*
X118062069Y-45844124D01*
X118154110Y-45993345D01*
X118278080Y-46117315D01*
X118427301Y-46209356D01*
X118427306Y-46209358D01*
X118593728Y-46264505D01*
X118593735Y-46264506D01*
X118696445Y-46274999D01*
X118858925Y-46274999D01*
X118858926Y-46274998D01*
X118858926Y-44350000D01*
X117996427Y-44350000D01*
X117996427Y-45574986D01*
X113717854Y-45574986D01*
X113717855Y-45574973D01*
X113717855Y-44350000D01*
X112855355Y-44350000D01*
X112855355Y-46274999D01*
X112355354Y-46274999D01*
X112355355Y-46274998D01*
X112355355Y-43850000D01*
X112855355Y-43850000D01*
X113717854Y-43850000D01*
X113717854Y-42625028D01*
X113717853Y-42625013D01*
X117996426Y-42625013D01*
X117996426Y-43850000D01*
X118858926Y-43850000D01*
X118858926Y-41925000D01*
X118696455Y-41925000D01*
X118696438Y-41925001D01*
X118593728Y-41935494D01*
X118427306Y-41990641D01*
X118427301Y-41990643D01*
X118278080Y-42082684D01*
X118154110Y-42206654D01*
X118062069Y-42355875D01*
X118062067Y-42355880D01*
X118006920Y-42522302D01*
X118006919Y-42522309D01*
X117996426Y-42625013D01*
X113717853Y-42625013D01*
X113707360Y-42522302D01*
X113652213Y-42355880D01*
X113652211Y-42355875D01*
X113560170Y-42206654D01*
X113436200Y-42082684D01*
X113286979Y-41990643D01*
X113286974Y-41990641D01*
X113120552Y-41935494D01*
X113120545Y-41935493D01*
X113017841Y-41925000D01*
X112855355Y-41925000D01*
X112855355Y-43850000D01*
X112355355Y-43850000D01*
X112355355Y-41925000D01*
X112192884Y-41925000D01*
X112192858Y-41925002D01*
X112163937Y-41927956D01*
X112095245Y-41915185D01*
X112044362Y-41867303D01*
X112027339Y-41804571D01*
X112027709Y-40255403D01*
X112047409Y-40188375D01*
X112100223Y-40142632D01*
X112164314Y-40132081D01*
X112192878Y-40134999D01*
X112355354Y-40134999D01*
X112855355Y-40134999D01*
X113017827Y-40134999D01*
X113017841Y-40134998D01*
X113120552Y-40124505D01*
X113286974Y-40069358D01*
X113286979Y-40069356D01*
X113436200Y-39977315D01*
X113560170Y-39853345D01*
X113652211Y-39704124D01*
X113652213Y-39704119D01*
X113707360Y-39537697D01*
X113707361Y-39537690D01*
X113717854Y-39434986D01*
X117996427Y-39434986D01*
X118006920Y-39537697D01*
X118062067Y-39704119D01*
X118062069Y-39704124D01*
X118154110Y-39853345D01*
X118278080Y-39977315D01*
X118427301Y-40069356D01*
X118427306Y-40069358D01*
X118593728Y-40124505D01*
X118593735Y-40124506D01*
X118696445Y-40134999D01*
X118858925Y-40134999D01*
X118858926Y-40134998D01*
X118858926Y-38210000D01*
X117996427Y-38210000D01*
X117996427Y-39434986D01*
X113717854Y-39434986D01*
X113717855Y-39434973D01*
X113717855Y-38210000D01*
X112855355Y-38210000D01*
X112855355Y-40134999D01*
X112355354Y-40134999D01*
X112355355Y-40134998D01*
X112355355Y-37710000D01*
X112855355Y-37710000D01*
X113717854Y-37710000D01*
X113717854Y-36485028D01*
X113717853Y-36485013D01*
X117996426Y-36485013D01*
X117996426Y-37710000D01*
X118858926Y-37710000D01*
X118858926Y-35785000D01*
X118696455Y-35785000D01*
X118696438Y-35785001D01*
X118593728Y-35795494D01*
X118427306Y-35850641D01*
X118427301Y-35850643D01*
X118278080Y-35942684D01*
X118154110Y-36066654D01*
X118062069Y-36215875D01*
X118062067Y-36215880D01*
X118006920Y-36382302D01*
X118006919Y-36382309D01*
X117996426Y-36485013D01*
X113717853Y-36485013D01*
X113707360Y-36382302D01*
X113652213Y-36215880D01*
X113652211Y-36215875D01*
X113560170Y-36066654D01*
X113436200Y-35942684D01*
X113286979Y-35850643D01*
X113286974Y-35850641D01*
X113120552Y-35795494D01*
X113120545Y-35795493D01*
X113017841Y-35785000D01*
X112855355Y-35785000D01*
X112855355Y-37710000D01*
X112355355Y-37710000D01*
X112355355Y-35785000D01*
X112192884Y-35785000D01*
X112192865Y-35785001D01*
X112165406Y-35787807D01*
X112096714Y-35775037D01*
X112045829Y-35727156D01*
X112028805Y-35664421D01*
X112029115Y-34365548D01*
X112048815Y-34298519D01*
X112101629Y-34252776D01*
X112165718Y-34242225D01*
X112192876Y-34244999D01*
X112355354Y-34244999D01*
X112855355Y-34244999D01*
X113017827Y-34244999D01*
X113017841Y-34244998D01*
X113120552Y-34234505D01*
X113286974Y-34179358D01*
X113286979Y-34179356D01*
X113436200Y-34087315D01*
X113560170Y-33963345D01*
X113652211Y-33814124D01*
X113652213Y-33814119D01*
X113707360Y-33647697D01*
X113707361Y-33647690D01*
X113717854Y-33544986D01*
X117996427Y-33544986D01*
X118006920Y-33647697D01*
X118062067Y-33814119D01*
X118062069Y-33814124D01*
X118154110Y-33963345D01*
X118278080Y-34087315D01*
X118427301Y-34179356D01*
X118427306Y-34179358D01*
X118593728Y-34234505D01*
X118593735Y-34234506D01*
X118696445Y-34244999D01*
X118858925Y-34244999D01*
X118858926Y-34244998D01*
X118858926Y-32320000D01*
X117996427Y-32320000D01*
X117996427Y-33544986D01*
X113717854Y-33544986D01*
X113717855Y-33544973D01*
X113717855Y-32320000D01*
X112855355Y-32320000D01*
X112855355Y-34244999D01*
X112355354Y-34244999D01*
X112355355Y-34244998D01*
X112355355Y-31820000D01*
X112855355Y-31820000D01*
X113717854Y-31820000D01*
X113717854Y-30595028D01*
X113717853Y-30595013D01*
X117996426Y-30595013D01*
X117996426Y-31820000D01*
X118858926Y-31820000D01*
X118858926Y-29895000D01*
X118696455Y-29895000D01*
X118696438Y-29895001D01*
X118593728Y-29905494D01*
X118427306Y-29960641D01*
X118427301Y-29960643D01*
X118278080Y-30052684D01*
X118154110Y-30176654D01*
X118062069Y-30325875D01*
X118062067Y-30325880D01*
X118006920Y-30492302D01*
X118006919Y-30492309D01*
X117996426Y-30595013D01*
X113717853Y-30595013D01*
X113707360Y-30492302D01*
X113652213Y-30325880D01*
X113652211Y-30325875D01*
X113560170Y-30176654D01*
X113436200Y-30052684D01*
X113286979Y-29960643D01*
X113286974Y-29960641D01*
X113120552Y-29905494D01*
X113120545Y-29905493D01*
X113017841Y-29895000D01*
X112855355Y-29895000D01*
X112855355Y-31820000D01*
X112355355Y-31820000D01*
X112355355Y-29895000D01*
X112192884Y-29895000D01*
X112192862Y-29895002D01*
X112166811Y-29897663D01*
X112098118Y-29884892D01*
X112047235Y-29837011D01*
X112030211Y-29774276D01*
X112030521Y-28475691D01*
X112050221Y-28408663D01*
X112103035Y-28362920D01*
X112167123Y-28352369D01*
X112192874Y-28354999D01*
X112355354Y-28354999D01*
X112855355Y-28354999D01*
X113017827Y-28354999D01*
X113017841Y-28354998D01*
X113120552Y-28344505D01*
X113286974Y-28289358D01*
X113286979Y-28289356D01*
X113436200Y-28197315D01*
X113560170Y-28073345D01*
X113652211Y-27924124D01*
X113652213Y-27924119D01*
X113707360Y-27757697D01*
X113707361Y-27757690D01*
X113717854Y-27654986D01*
X117996427Y-27654986D01*
X118006920Y-27757697D01*
X118062067Y-27924119D01*
X118062069Y-27924124D01*
X118154110Y-28073345D01*
X118278080Y-28197315D01*
X118427301Y-28289356D01*
X118427306Y-28289358D01*
X118593728Y-28344505D01*
X118593735Y-28344506D01*
X118696445Y-28354999D01*
X118858925Y-28354999D01*
X118858926Y-28354998D01*
X118858926Y-26430000D01*
X117996427Y-26430000D01*
X117996427Y-27654986D01*
X113717854Y-27654986D01*
X113717855Y-27654973D01*
X113717855Y-26430000D01*
X112855355Y-26430000D01*
X112855355Y-28354999D01*
X112355354Y-28354999D01*
X112355355Y-28354998D01*
X112355355Y-26054000D01*
X112375040Y-25986961D01*
X112427844Y-25941206D01*
X112479355Y-25930000D01*
X113717854Y-25930000D01*
X113717854Y-24705028D01*
X113717853Y-24705011D01*
X113709362Y-24621889D01*
X113722132Y-24553197D01*
X113770013Y-24502312D01*
X113832720Y-24485288D01*
X117881561Y-24485288D01*
X117948600Y-24504973D01*
G37*
%TD.AperFunction*%
%TD*%
%TA.AperFunction,Conductor*%
%TO.N,/P7*%
G36*
X132069527Y-24475056D02*
G01*
X132115282Y-24527860D01*
X132126488Y-24579385D01*
X132113951Y-133959194D01*
X132094259Y-134026231D01*
X132041450Y-134071980D01*
X131990895Y-134083176D01*
X124605293Y-134139412D01*
X124538106Y-134120239D01*
X124491950Y-134067785D01*
X124480349Y-134015389D01*
X124506472Y-24579339D01*
X124526173Y-24512307D01*
X124578987Y-24466564D01*
X124630472Y-24455371D01*
X132002488Y-24455371D01*
X132069527Y-24475056D01*
G37*
%TD.AperFunction*%
%TD*%
%TA.AperFunction,Conductor*%
%TO.N,/V+*%
G36*
X45563358Y-24441711D02*
G01*
X45611764Y-24492095D01*
X45625764Y-24549184D01*
X45755318Y-134048619D01*
X45735713Y-134115682D01*
X45682963Y-134161499D01*
X45635441Y-134172697D01*
X42128623Y-134289357D01*
X42060966Y-134271913D01*
X42013481Y-134220659D01*
X42000500Y-134165426D01*
X42000500Y-101215033D01*
X42145386Y-24715304D01*
X42165198Y-24648302D01*
X42218088Y-24602647D01*
X42263013Y-24591704D01*
X45495397Y-24425495D01*
X45563358Y-24441711D01*
G37*
%TD.AperFunction*%
%TD*%
%TA.AperFunction,Conductor*%
%TO.N,/V-*%
G36*
X139898413Y-24437586D02*
G01*
X139944923Y-24489726D01*
X139956882Y-24542709D01*
X140086438Y-134042818D01*
X140066833Y-134109881D01*
X140014083Y-134155698D01*
X139962438Y-134166965D01*
X136266206Y-134166965D01*
X136199167Y-134147280D01*
X136153412Y-134094476D01*
X136142206Y-134042730D01*
X136349501Y-24590992D01*
X136369313Y-24523994D01*
X136422203Y-24478339D01*
X136471713Y-24467244D01*
X139831097Y-24418869D01*
X139898413Y-24437586D01*
G37*
%TD.AperFunction*%
%TD*%
M02*
