%TF.GenerationSoftware,KiCad,Pcbnew,8.0.6*%
%TF.CreationDate,2024-12-19T08:29:33+08:00*%
%TF.ProjectId,dummyload,64756d6d-796c-46f6-9164-2e6b69636164,rev?*%
%TF.SameCoordinates,Original*%
%TF.FileFunction,Paste,Top*%
%TF.FilePolarity,Positive*%
%FSLAX46Y46*%
G04 Gerber Fmt 4.6, Leading zero omitted, Abs format (unit mm)*
G04 Created by KiCad (PCBNEW 8.0.6) date 2024-12-19 08:29:33*
%MOMM*%
%LPD*%
G01*
G04 APERTURE LIST*
G04 Aperture macros list*
%AMRoundRect*
0 Rectangle with rounded corners*
0 $1 Rounding radius*
0 $2 $3 $4 $5 $6 $7 $8 $9 X,Y pos of 4 corners*
0 Add a 4 corners polygon primitive as box body*
4,1,4,$2,$3,$4,$5,$6,$7,$8,$9,$2,$3,0*
0 Add four circle primitives for the rounded corners*
1,1,$1+$1,$2,$3*
1,1,$1+$1,$4,$5*
1,1,$1+$1,$6,$7*
1,1,$1+$1,$8,$9*
0 Add four rect primitives between the rounded corners*
20,1,$1+$1,$2,$3,$4,$5,0*
20,1,$1+$1,$4,$5,$6,$7,0*
20,1,$1+$1,$6,$7,$8,$9,0*
20,1,$1+$1,$8,$9,$2,$3,0*%
G04 Aperture macros list end*
%ADD10RoundRect,0.250000X-0.362500X-1.425000X0.362500X-1.425000X0.362500X1.425000X-0.362500X1.425000X0*%
G04 APERTURE END LIST*
D10*
%TO.C,R14*%
X44537500Y-103290000D03*
X50462500Y-103290000D03*
%TD*%
%TO.C,R32*%
X57007142Y-97670000D03*
X62932142Y-97670000D03*
%TD*%
%TO.C,R82*%
X94251784Y-55880000D03*
X100176784Y-55880000D03*
%TD*%
%TO.C,R137*%
X131537500Y-44100000D03*
X137462500Y-44100000D03*
%TD*%
%TO.C,R51*%
X69476784Y-97670000D03*
X75401784Y-97670000D03*
%TD*%
%TO.C,R117*%
X119108926Y-37960000D03*
X125033926Y-37960000D03*
%TD*%
%TO.C,R151*%
X131825000Y-126540000D03*
X137750000Y-126540000D03*
%TD*%
%TO.C,R83*%
X94251784Y-61770000D03*
X100176784Y-61770000D03*
%TD*%
%TO.C,R46*%
X69394642Y-68160000D03*
X75319642Y-68160000D03*
%TD*%
%TO.C,R132*%
X119355352Y-126540000D03*
X125280352Y-126540000D03*
%TD*%
%TO.C,R28*%
X56966071Y-74300000D03*
X62891071Y-74300000D03*
%TD*%
%TO.C,R29*%
X56966071Y-80440000D03*
X62891071Y-80440000D03*
%TD*%
%TO.C,R124*%
X119108926Y-80440000D03*
X125033926Y-80440000D03*
%TD*%
%TO.C,R9*%
X44537500Y-74300000D03*
X50462500Y-74300000D03*
%TD*%
%TO.C,R42*%
X69394642Y-44100000D03*
X75319642Y-44100000D03*
%TD*%
%TO.C,R45*%
X69394642Y-61770000D03*
X75319642Y-61770000D03*
%TD*%
%TO.C,R84*%
X94251784Y-68160000D03*
X100176784Y-68160000D03*
%TD*%
%TO.C,R22*%
X56966071Y-37960000D03*
X62891071Y-37960000D03*
%TD*%
%TO.C,R12*%
X44537500Y-91950000D03*
X50462500Y-91950000D03*
%TD*%
%TO.C,R150*%
X131825000Y-120760000D03*
X137750000Y-120760000D03*
%TD*%
%TO.C,R85*%
X94251784Y-74300000D03*
X100176784Y-74300000D03*
%TD*%
%TO.C,R31*%
X57007142Y-91950000D03*
X62932142Y-91950000D03*
%TD*%
%TO.C,R1*%
X44537500Y-26180000D03*
X50462500Y-26180000D03*
%TD*%
%TO.C,R92*%
X94416068Y-114790000D03*
X100341068Y-114790000D03*
%TD*%
%TO.C,R114*%
X106896425Y-132290000D03*
X112821425Y-132290000D03*
%TD*%
%TO.C,R140*%
X131537500Y-61770000D03*
X137462500Y-61770000D03*
%TD*%
%TO.C,R41*%
X69394642Y-37960000D03*
X75319642Y-37960000D03*
%TD*%
%TO.C,R53*%
X69476784Y-109040000D03*
X75401784Y-109040000D03*
%TD*%
%TO.C,R75*%
X81946426Y-126540000D03*
X87871426Y-126540000D03*
%TD*%
%TO.C,R2*%
X44537500Y-32070000D03*
X50462500Y-32070000D03*
%TD*%
%TO.C,R43*%
X69394642Y-49990000D03*
X75319642Y-49990000D03*
%TD*%
%TO.C,R130*%
X119355352Y-114790000D03*
X125280352Y-114790000D03*
%TD*%
%TO.C,R72*%
X81946426Y-109040000D03*
X87871426Y-109040000D03*
%TD*%
%TO.C,R100*%
X106680355Y-49990000D03*
X112605355Y-49990000D03*
%TD*%
%TO.C,R36*%
X57007142Y-120760000D03*
X62932142Y-120760000D03*
%TD*%
%TO.C,R74*%
X81946426Y-120760000D03*
X87871426Y-120760000D03*
%TD*%
%TO.C,R64*%
X81823213Y-61770000D03*
X87748213Y-61770000D03*
%TD*%
%TO.C,R147*%
X131825000Y-103290000D03*
X137750000Y-103290000D03*
%TD*%
%TO.C,R73*%
X81946426Y-114790000D03*
X87871426Y-114790000D03*
%TD*%
%TO.C,R108*%
X106885710Y-97670000D03*
X112810710Y-97670000D03*
%TD*%
%TO.C,R78*%
X94251784Y-32070000D03*
X100176784Y-32070000D03*
%TD*%
%TO.C,R139*%
X131537500Y-55880000D03*
X137462500Y-55880000D03*
%TD*%
%TO.C,R144*%
X131537500Y-86330000D03*
X137462500Y-86330000D03*
%TD*%
%TO.C,R112*%
X106885710Y-120760000D03*
X112810710Y-120760000D03*
%TD*%
%TO.C,R122*%
X119108926Y-68160000D03*
X125033926Y-68160000D03*
%TD*%
%TO.C,R37*%
X57007142Y-126540000D03*
X62932142Y-126540000D03*
%TD*%
%TO.C,R63*%
X81823213Y-55880000D03*
X87748213Y-55880000D03*
%TD*%
%TO.C,R121*%
X119108926Y-61770000D03*
X125033926Y-61770000D03*
%TD*%
%TO.C,R19*%
X44575000Y-132290000D03*
X50500000Y-132290000D03*
%TD*%
%TO.C,R10*%
X44537500Y-80440000D03*
X50462500Y-80440000D03*
%TD*%
%TO.C,R141*%
X131537500Y-68160000D03*
X137462500Y-68160000D03*
%TD*%
%TO.C,R120*%
X119108926Y-55880000D03*
X125033926Y-55880000D03*
%TD*%
%TO.C,R88*%
X94416068Y-91950000D03*
X100341068Y-91950000D03*
%TD*%
%TO.C,R119*%
X119108926Y-49990000D03*
X125033926Y-49990000D03*
%TD*%
%TO.C,R136*%
X131537500Y-37960000D03*
X137462500Y-37960000D03*
%TD*%
%TO.C,R6*%
X44537500Y-55880000D03*
X50462500Y-55880000D03*
%TD*%
%TO.C,R68*%
X81823213Y-86330000D03*
X87748213Y-86330000D03*
%TD*%
%TO.C,R44*%
X69394642Y-55880000D03*
X75319642Y-55880000D03*
%TD*%
%TO.C,R126*%
X119355352Y-91950000D03*
X125280352Y-91950000D03*
%TD*%
%TO.C,R24*%
X56966071Y-49990000D03*
X62891071Y-49990000D03*
%TD*%
%TO.C,R149*%
X131825000Y-114790000D03*
X137750000Y-114790000D03*
%TD*%
%TO.C,R52*%
X69476784Y-103290000D03*
X75401784Y-103290000D03*
%TD*%
%TO.C,R15*%
X44537500Y-109040000D03*
X50462500Y-109040000D03*
%TD*%
%TO.C,R79*%
X94251784Y-37960000D03*
X100176784Y-37960000D03*
%TD*%
%TO.C,R39*%
X69394642Y-26180000D03*
X75319642Y-26180000D03*
%TD*%
%TO.C,R152*%
X131825000Y-132290000D03*
X137750000Y-132290000D03*
%TD*%
%TO.C,R99*%
X106680355Y-44100000D03*
X112605355Y-44100000D03*
%TD*%
%TO.C,R91*%
X94416068Y-109040000D03*
X100341068Y-109040000D03*
%TD*%
%TO.C,R54*%
X69476784Y-114790000D03*
X75401784Y-114790000D03*
%TD*%
%TO.C,R93*%
X94416068Y-120760000D03*
X100341068Y-120760000D03*
%TD*%
%TO.C,R60*%
X81823213Y-37960000D03*
X87748213Y-37960000D03*
%TD*%
%TO.C,R113*%
X106885710Y-126540000D03*
X112810710Y-126540000D03*
%TD*%
%TO.C,R70*%
X81946426Y-97670000D03*
X87871426Y-97670000D03*
%TD*%
%TO.C,R134*%
X131537500Y-26180000D03*
X137462500Y-26180000D03*
%TD*%
%TO.C,R49*%
X69394642Y-86330000D03*
X75319642Y-86330000D03*
%TD*%
%TO.C,R89*%
X94416068Y-97670000D03*
X100341068Y-97670000D03*
%TD*%
%TO.C,R97*%
X106680355Y-32070000D03*
X112605355Y-32070000D03*
%TD*%
%TO.C,R106*%
X106680355Y-86330000D03*
X112605355Y-86330000D03*
%TD*%
%TO.C,R90*%
X94416068Y-103290000D03*
X100341068Y-103290000D03*
%TD*%
%TO.C,R4*%
X44537500Y-44100000D03*
X50462500Y-44100000D03*
%TD*%
%TO.C,R27*%
X56966071Y-68160000D03*
X62891071Y-68160000D03*
%TD*%
%TO.C,R135*%
X131537500Y-32070000D03*
X137462500Y-32070000D03*
%TD*%
%TO.C,R131*%
X119355352Y-120760000D03*
X125280352Y-120760000D03*
%TD*%
%TO.C,R3*%
X44537500Y-37960000D03*
X50462500Y-37960000D03*
%TD*%
%TO.C,R111*%
X106885710Y-114790000D03*
X112810710Y-114790000D03*
%TD*%
%TO.C,R30*%
X56966071Y-86330000D03*
X62891071Y-86330000D03*
%TD*%
%TO.C,R57*%
X69503570Y-132290000D03*
X75428570Y-132290000D03*
%TD*%
%TO.C,R17*%
X44537500Y-120760000D03*
X50462500Y-120760000D03*
%TD*%
%TO.C,R5*%
X44537500Y-49990000D03*
X50462500Y-49990000D03*
%TD*%
%TO.C,R71*%
X81946426Y-103290000D03*
X87871426Y-103290000D03*
%TD*%
%TO.C,R146*%
X131825000Y-97670000D03*
X137750000Y-97670000D03*
%TD*%
%TO.C,R105*%
X106680355Y-80440000D03*
X112605355Y-80440000D03*
%TD*%
%TO.C,R16*%
X44537500Y-114790000D03*
X50462500Y-114790000D03*
%TD*%
%TO.C,R25*%
X56966071Y-55880000D03*
X62891071Y-55880000D03*
%TD*%
%TO.C,R38*%
X57039285Y-132290000D03*
X62964285Y-132290000D03*
%TD*%
%TO.C,R128*%
X119355352Y-103290000D03*
X125280352Y-103290000D03*
%TD*%
%TO.C,R101*%
X106680355Y-55880000D03*
X112605355Y-55880000D03*
%TD*%
%TO.C,R59*%
X81823213Y-32070000D03*
X87748213Y-32070000D03*
%TD*%
%TO.C,R129*%
X119355352Y-109040000D03*
X125280352Y-109040000D03*
%TD*%
%TO.C,R66*%
X81823213Y-74300000D03*
X87748213Y-74300000D03*
%TD*%
%TO.C,R95*%
X94432140Y-132290000D03*
X100357140Y-132290000D03*
%TD*%
%TO.C,R80*%
X94251784Y-44100000D03*
X100176784Y-44100000D03*
%TD*%
%TO.C,R47*%
X69394642Y-74300000D03*
X75319642Y-74300000D03*
%TD*%
%TO.C,R33*%
X57007142Y-103290000D03*
X62932142Y-103290000D03*
%TD*%
%TO.C,R86*%
X94251784Y-80440000D03*
X100176784Y-80440000D03*
%TD*%
%TO.C,R20*%
X56966071Y-26180000D03*
X62891071Y-26180000D03*
%TD*%
%TO.C,R133*%
X119360710Y-132290000D03*
X125285710Y-132290000D03*
%TD*%
%TO.C,R67*%
X81823213Y-80440000D03*
X87748213Y-80440000D03*
%TD*%
%TO.C,R21*%
X56966071Y-32070000D03*
X62891071Y-32070000D03*
%TD*%
%TO.C,R118*%
X119108926Y-44100000D03*
X125033926Y-44100000D03*
%TD*%
%TO.C,R35*%
X57007142Y-114790000D03*
X62932142Y-114790000D03*
%TD*%
%TO.C,R13*%
X44537500Y-97670000D03*
X50462500Y-97670000D03*
%TD*%
%TO.C,R50*%
X69476784Y-91950000D03*
X75401784Y-91950000D03*
%TD*%
%TO.C,R143*%
X131537500Y-80440000D03*
X137462500Y-80440000D03*
%TD*%
%TO.C,R61*%
X81823213Y-44100000D03*
X87748213Y-44100000D03*
%TD*%
%TO.C,R98*%
X106680355Y-37960000D03*
X112605355Y-37960000D03*
%TD*%
%TO.C,R62*%
X81823213Y-49990000D03*
X87748213Y-49990000D03*
%TD*%
%TO.C,R148*%
X131825000Y-109040000D03*
X137750000Y-109040000D03*
%TD*%
%TO.C,R76*%
X81967855Y-132290000D03*
X87892855Y-132290000D03*
%TD*%
%TO.C,R23*%
X56966071Y-44100000D03*
X62891071Y-44100000D03*
%TD*%
%TO.C,R94*%
X94416068Y-126540000D03*
X100341068Y-126540000D03*
%TD*%
%TO.C,R58*%
X81823213Y-26180000D03*
X87748213Y-26180000D03*
%TD*%
%TO.C,R26*%
X56966071Y-61770000D03*
X62891071Y-61770000D03*
%TD*%
%TO.C,R104*%
X106680355Y-74300000D03*
X112605355Y-74300000D03*
%TD*%
%TO.C,R116*%
X119108926Y-32070000D03*
X125033926Y-32070000D03*
%TD*%
%TO.C,R40*%
X69394642Y-32070000D03*
X75319642Y-32070000D03*
%TD*%
%TO.C,R142*%
X131537500Y-74300000D03*
X137462500Y-74300000D03*
%TD*%
%TO.C,R138*%
X131537500Y-49990000D03*
X137462500Y-49990000D03*
%TD*%
%TO.C,R110*%
X106885710Y-109040000D03*
X112810710Y-109040000D03*
%TD*%
%TO.C,R48*%
X69394642Y-80440000D03*
X75319642Y-80440000D03*
%TD*%
%TO.C,R81*%
X94251784Y-49990000D03*
X100176784Y-49990000D03*
%TD*%
%TO.C,R145*%
X131825000Y-91950000D03*
X137750000Y-91950000D03*
%TD*%
%TO.C,R123*%
X119108926Y-74300000D03*
X125033926Y-74300000D03*
%TD*%
%TO.C,R77*%
X94251784Y-26180000D03*
X100176784Y-26180000D03*
%TD*%
%TO.C,R7*%
X44537500Y-61770000D03*
X50462500Y-61770000D03*
%TD*%
%TO.C,R34*%
X57007142Y-109040000D03*
X62932142Y-109040000D03*
%TD*%
%TO.C,R65*%
X81823213Y-68160000D03*
X87748213Y-68160000D03*
%TD*%
%TO.C,R103*%
X106680355Y-68160000D03*
X112605355Y-68160000D03*
%TD*%
%TO.C,R125*%
X119108926Y-86330000D03*
X125033926Y-86330000D03*
%TD*%
%TO.C,R11*%
X44537500Y-86330000D03*
X50462500Y-86330000D03*
%TD*%
%TO.C,R18*%
X44537500Y-126540000D03*
X50462500Y-126540000D03*
%TD*%
%TO.C,R115*%
X119108926Y-26180000D03*
X125033926Y-26180000D03*
%TD*%
%TO.C,R102*%
X106680355Y-61770000D03*
X112605355Y-61770000D03*
%TD*%
%TO.C,R8*%
X44537500Y-68160000D03*
X50462500Y-68160000D03*
%TD*%
%TO.C,R56*%
X69476784Y-126540000D03*
X75401784Y-126540000D03*
%TD*%
%TO.C,R55*%
X69476784Y-120760000D03*
X75401784Y-120760000D03*
%TD*%
%TO.C,R69*%
X81946426Y-91950000D03*
X87871426Y-91950000D03*
%TD*%
%TO.C,R87*%
X94251784Y-86330000D03*
X100176784Y-86330000D03*
%TD*%
%TO.C,R109*%
X106885710Y-103290000D03*
X112810710Y-103290000D03*
%TD*%
%TO.C,R96*%
X106680355Y-26180000D03*
X112605355Y-26180000D03*
%TD*%
%TO.C,R107*%
X106885710Y-91950000D03*
X112810710Y-91950000D03*
%TD*%
%TO.C,R127*%
X119355352Y-97670000D03*
X125280352Y-97670000D03*
%TD*%
M02*
