%TF.GenerationSoftware,KiCad,Pcbnew,8.0.6*%
%TF.CreationDate,2024-12-19T08:47:46+08:00*%
%TF.ProjectId,dummyload,64756d6d-796c-46f6-9164-2e6b69636164,rev?*%
%TF.SameCoordinates,Original*%
%TF.FileFunction,Paste,Top*%
%TF.FilePolarity,Positive*%
%FSLAX46Y46*%
G04 Gerber Fmt 4.6, Leading zero omitted, Abs format (unit mm)*
G04 Created by KiCad (PCBNEW 8.0.6) date 2024-12-19 08:47:46*
%MOMM*%
%LPD*%
G01*
G04 APERTURE LIST*
G04 Aperture macros list*
%AMRoundRect*
0 Rectangle with rounded corners*
0 $1 Rounding radius*
0 $2 $3 $4 $5 $6 $7 $8 $9 X,Y pos of 4 corners*
0 Add a 4 corners polygon primitive as box body*
4,1,4,$2,$3,$4,$5,$6,$7,$8,$9,$2,$3,0*
0 Add four circle primitives for the rounded corners*
1,1,$1+$1,$2,$3*
1,1,$1+$1,$4,$5*
1,1,$1+$1,$6,$7*
1,1,$1+$1,$8,$9*
0 Add four rect primitives between the rounded corners*
20,1,$1+$1,$2,$3,$4,$5,0*
20,1,$1+$1,$4,$5,$6,$7,0*
20,1,$1+$1,$6,$7,$8,$9,0*
20,1,$1+$1,$8,$9,$2,$3,0*%
G04 Aperture macros list end*
%ADD10RoundRect,0.250000X-0.362500X-1.425000X0.362500X-1.425000X0.362500X1.425000X-0.362500X1.425000X0*%
G04 APERTURE END LIST*
D10*
%TO.C,R14*%
X49075000Y-103290000D03*
X55000000Y-103290000D03*
%TD*%
%TO.C,R32*%
X60084530Y-97670000D03*
X66009530Y-97670000D03*
%TD*%
%TO.C,R82*%
X93724520Y-55880000D03*
X99649520Y-55880000D03*
%TD*%
%TO.C,R137*%
X133090608Y-44100000D03*
X127165608Y-44100000D03*
%TD*%
%TO.C,R51*%
X71129774Y-97670000D03*
X77054774Y-97670000D03*
%TD*%
%TO.C,R117*%
X115982864Y-37960000D03*
X121907864Y-37960000D03*
%TD*%
%TO.C,R151*%
X133378108Y-126540000D03*
X127453108Y-126540000D03*
%TD*%
%TO.C,R83*%
X93724520Y-61770000D03*
X99649520Y-61770000D03*
%TD*%
%TO.C,R46*%
X71047632Y-68160000D03*
X76972632Y-68160000D03*
%TD*%
%TO.C,R132*%
X116229290Y-126540000D03*
X122154290Y-126540000D03*
%TD*%
%TO.C,R28*%
X60043459Y-74300000D03*
X65968459Y-74300000D03*
%TD*%
%TO.C,R29*%
X60043459Y-80440000D03*
X65968459Y-80440000D03*
%TD*%
%TO.C,R124*%
X115982864Y-80440000D03*
X121907864Y-80440000D03*
%TD*%
%TO.C,R9*%
X49075000Y-74300000D03*
X55000000Y-74300000D03*
%TD*%
%TO.C,R42*%
X71047632Y-44100000D03*
X76972632Y-44100000D03*
%TD*%
%TO.C,R45*%
X71047632Y-61770000D03*
X76972632Y-61770000D03*
%TD*%
%TO.C,R84*%
X93724520Y-68160000D03*
X99649520Y-68160000D03*
%TD*%
%TO.C,R22*%
X60043459Y-37960000D03*
X65968459Y-37960000D03*
%TD*%
%TO.C,R12*%
X49075000Y-91950000D03*
X55000000Y-91950000D03*
%TD*%
%TO.C,R150*%
X133378108Y-120760000D03*
X127453108Y-120760000D03*
%TD*%
%TO.C,R85*%
X93724520Y-74300000D03*
X99649520Y-74300000D03*
%TD*%
%TO.C,R31*%
X60084530Y-91950000D03*
X66009530Y-91950000D03*
%TD*%
%TO.C,R1*%
X55000000Y-26180000D03*
X49075000Y-26180000D03*
%TD*%
%TO.C,R92*%
X93888804Y-114790000D03*
X99813804Y-114790000D03*
%TD*%
%TO.C,R114*%
X105051905Y-132290000D03*
X110976905Y-132290000D03*
%TD*%
%TO.C,R140*%
X133090608Y-61770000D03*
X127165608Y-61770000D03*
%TD*%
%TO.C,R41*%
X71047632Y-37960000D03*
X76972632Y-37960000D03*
%TD*%
%TO.C,R53*%
X71129774Y-109040000D03*
X77054774Y-109040000D03*
%TD*%
%TO.C,R75*%
X82210732Y-126540000D03*
X88135732Y-126540000D03*
%TD*%
%TO.C,R2*%
X49075000Y-32070000D03*
X55000000Y-32070000D03*
%TD*%
%TO.C,R43*%
X71047632Y-49990000D03*
X76972632Y-49990000D03*
%TD*%
%TO.C,R130*%
X116229290Y-114790000D03*
X122154290Y-114790000D03*
%TD*%
%TO.C,R72*%
X82210732Y-109040000D03*
X88135732Y-109040000D03*
%TD*%
%TO.C,R100*%
X104835835Y-49990000D03*
X110760835Y-49990000D03*
%TD*%
%TO.C,R36*%
X60084530Y-120760000D03*
X66009530Y-120760000D03*
%TD*%
%TO.C,R74*%
X82210732Y-120760000D03*
X88135732Y-120760000D03*
%TD*%
%TO.C,R64*%
X82087519Y-61770000D03*
X88012519Y-61770000D03*
%TD*%
%TO.C,R147*%
X133378108Y-103290000D03*
X127453108Y-103290000D03*
%TD*%
%TO.C,R73*%
X82210732Y-114790000D03*
X88135732Y-114790000D03*
%TD*%
%TO.C,R108*%
X105041190Y-97670000D03*
X110966190Y-97670000D03*
%TD*%
%TO.C,R78*%
X93724520Y-32070000D03*
X99649520Y-32070000D03*
%TD*%
%TO.C,R139*%
X133090608Y-55880000D03*
X127165608Y-55880000D03*
%TD*%
%TO.C,R144*%
X133090608Y-86330000D03*
X127165608Y-86330000D03*
%TD*%
%TO.C,R112*%
X105041190Y-120760000D03*
X110966190Y-120760000D03*
%TD*%
%TO.C,R122*%
X115982864Y-68160000D03*
X121907864Y-68160000D03*
%TD*%
%TO.C,R37*%
X60084530Y-126540000D03*
X66009530Y-126540000D03*
%TD*%
%TO.C,R63*%
X82087519Y-55880000D03*
X88012519Y-55880000D03*
%TD*%
%TO.C,R121*%
X115982864Y-61770000D03*
X121907864Y-61770000D03*
%TD*%
%TO.C,R19*%
X49112500Y-132290000D03*
X55037500Y-132290000D03*
%TD*%
%TO.C,R10*%
X49075000Y-80440000D03*
X55000000Y-80440000D03*
%TD*%
%TO.C,R141*%
X133090608Y-68160000D03*
X127165608Y-68160000D03*
%TD*%
%TO.C,R120*%
X115982864Y-55880000D03*
X121907864Y-55880000D03*
%TD*%
%TO.C,R88*%
X93888804Y-91950000D03*
X99813804Y-91950000D03*
%TD*%
%TO.C,R119*%
X115982864Y-49990000D03*
X121907864Y-49990000D03*
%TD*%
%TO.C,R136*%
X133090608Y-37960000D03*
X127165608Y-37960000D03*
%TD*%
%TO.C,R6*%
X49075000Y-55880000D03*
X55000000Y-55880000D03*
%TD*%
%TO.C,R68*%
X82087519Y-86330000D03*
X88012519Y-86330000D03*
%TD*%
%TO.C,R44*%
X71047632Y-55880000D03*
X76972632Y-55880000D03*
%TD*%
%TO.C,R126*%
X116229290Y-91950000D03*
X122154290Y-91950000D03*
%TD*%
%TO.C,R24*%
X60043459Y-49990000D03*
X65968459Y-49990000D03*
%TD*%
%TO.C,R149*%
X133378108Y-114790000D03*
X127453108Y-114790000D03*
%TD*%
%TO.C,R52*%
X71129774Y-103290000D03*
X77054774Y-103290000D03*
%TD*%
%TO.C,R15*%
X49075000Y-109040000D03*
X55000000Y-109040000D03*
%TD*%
%TO.C,R79*%
X93724520Y-37960000D03*
X99649520Y-37960000D03*
%TD*%
%TO.C,R39*%
X76972632Y-26180000D03*
X71047632Y-26180000D03*
%TD*%
%TO.C,R152*%
X133378108Y-132290000D03*
X127453108Y-132290000D03*
%TD*%
%TO.C,R99*%
X104835835Y-44100000D03*
X110760835Y-44100000D03*
%TD*%
%TO.C,R91*%
X93888804Y-109040000D03*
X99813804Y-109040000D03*
%TD*%
%TO.C,R54*%
X71129774Y-114790000D03*
X77054774Y-114790000D03*
%TD*%
%TO.C,R93*%
X93888804Y-120760000D03*
X99813804Y-120760000D03*
%TD*%
%TO.C,R60*%
X82087519Y-37960000D03*
X88012519Y-37960000D03*
%TD*%
%TO.C,R113*%
X105041190Y-126540000D03*
X110966190Y-126540000D03*
%TD*%
%TO.C,R70*%
X82210732Y-97670000D03*
X88135732Y-97670000D03*
%TD*%
%TO.C,R134*%
X133090608Y-26180000D03*
X127165608Y-26180000D03*
%TD*%
%TO.C,R49*%
X71047632Y-86330000D03*
X76972632Y-86330000D03*
%TD*%
%TO.C,R89*%
X93888804Y-97670000D03*
X99813804Y-97670000D03*
%TD*%
%TO.C,R97*%
X104835835Y-32070000D03*
X110760835Y-32070000D03*
%TD*%
%TO.C,R106*%
X104835835Y-86330000D03*
X110760835Y-86330000D03*
%TD*%
%TO.C,R90*%
X93888804Y-103290000D03*
X99813804Y-103290000D03*
%TD*%
%TO.C,R4*%
X49075000Y-44100000D03*
X55000000Y-44100000D03*
%TD*%
%TO.C,R27*%
X60043459Y-68160000D03*
X65968459Y-68160000D03*
%TD*%
%TO.C,R135*%
X133090608Y-32070000D03*
X127165608Y-32070000D03*
%TD*%
%TO.C,R131*%
X116229290Y-120760000D03*
X122154290Y-120760000D03*
%TD*%
%TO.C,R3*%
X49075000Y-37960000D03*
X55000000Y-37960000D03*
%TD*%
%TO.C,R111*%
X105041190Y-114790000D03*
X110966190Y-114790000D03*
%TD*%
%TO.C,R30*%
X60043459Y-86330000D03*
X65968459Y-86330000D03*
%TD*%
%TO.C,R57*%
X71156560Y-132290000D03*
X77081560Y-132290000D03*
%TD*%
%TO.C,R17*%
X49075000Y-120760000D03*
X55000000Y-120760000D03*
%TD*%
%TO.C,R5*%
X49075000Y-49990000D03*
X55000000Y-49990000D03*
%TD*%
%TO.C,R71*%
X82210732Y-103290000D03*
X88135732Y-103290000D03*
%TD*%
%TO.C,R146*%
X133378108Y-97670000D03*
X127453108Y-97670000D03*
%TD*%
%TO.C,R105*%
X104835835Y-80440000D03*
X110760835Y-80440000D03*
%TD*%
%TO.C,R16*%
X49075000Y-114790000D03*
X55000000Y-114790000D03*
%TD*%
%TO.C,R25*%
X60043459Y-55880000D03*
X65968459Y-55880000D03*
%TD*%
%TO.C,R38*%
X60116673Y-132290000D03*
X66041673Y-132290000D03*
%TD*%
%TO.C,R128*%
X116229290Y-103290000D03*
X122154290Y-103290000D03*
%TD*%
%TO.C,R101*%
X104835835Y-55880000D03*
X110760835Y-55880000D03*
%TD*%
%TO.C,R59*%
X82087519Y-32070000D03*
X88012519Y-32070000D03*
%TD*%
%TO.C,R129*%
X116229290Y-109040000D03*
X122154290Y-109040000D03*
%TD*%
%TO.C,R66*%
X82087519Y-74300000D03*
X88012519Y-74300000D03*
%TD*%
%TO.C,R95*%
X93904876Y-132290000D03*
X99829876Y-132290000D03*
%TD*%
%TO.C,R80*%
X93724520Y-44100000D03*
X99649520Y-44100000D03*
%TD*%
%TO.C,R47*%
X71047632Y-74300000D03*
X76972632Y-74300000D03*
%TD*%
%TO.C,R33*%
X60084530Y-103290000D03*
X66009530Y-103290000D03*
%TD*%
%TO.C,R86*%
X93724520Y-80440000D03*
X99649520Y-80440000D03*
%TD*%
%TO.C,R20*%
X65968459Y-26180000D03*
X60043459Y-26180000D03*
%TD*%
%TO.C,R133*%
X116234648Y-132290000D03*
X122159648Y-132290000D03*
%TD*%
%TO.C,R67*%
X82087519Y-80440000D03*
X88012519Y-80440000D03*
%TD*%
%TO.C,R21*%
X60043459Y-32070000D03*
X65968459Y-32070000D03*
%TD*%
%TO.C,R118*%
X115982864Y-44100000D03*
X121907864Y-44100000D03*
%TD*%
%TO.C,R35*%
X60084530Y-114790000D03*
X66009530Y-114790000D03*
%TD*%
%TO.C,R13*%
X49075000Y-97670000D03*
X55000000Y-97670000D03*
%TD*%
%TO.C,R50*%
X71129774Y-91950000D03*
X77054774Y-91950000D03*
%TD*%
%TO.C,R143*%
X133090608Y-80440000D03*
X127165608Y-80440000D03*
%TD*%
%TO.C,R61*%
X82087519Y-44100000D03*
X88012519Y-44100000D03*
%TD*%
%TO.C,R98*%
X104835835Y-37960000D03*
X110760835Y-37960000D03*
%TD*%
%TO.C,R62*%
X82087519Y-49990000D03*
X88012519Y-49990000D03*
%TD*%
%TO.C,R148*%
X133378108Y-109040000D03*
X127453108Y-109040000D03*
%TD*%
%TO.C,R76*%
X82232161Y-132290000D03*
X88157161Y-132290000D03*
%TD*%
%TO.C,R23*%
X60043459Y-44100000D03*
X65968459Y-44100000D03*
%TD*%
%TO.C,R94*%
X93888804Y-126540000D03*
X99813804Y-126540000D03*
%TD*%
%TO.C,R58*%
X88012519Y-26180000D03*
X82087519Y-26180000D03*
%TD*%
%TO.C,R26*%
X60043459Y-61770000D03*
X65968459Y-61770000D03*
%TD*%
%TO.C,R104*%
X104835835Y-74300000D03*
X110760835Y-74300000D03*
%TD*%
%TO.C,R116*%
X115982864Y-32070000D03*
X121907864Y-32070000D03*
%TD*%
%TO.C,R40*%
X71047632Y-32070000D03*
X76972632Y-32070000D03*
%TD*%
%TO.C,R142*%
X133090608Y-74300000D03*
X127165608Y-74300000D03*
%TD*%
%TO.C,R138*%
X133090608Y-49990000D03*
X127165608Y-49990000D03*
%TD*%
%TO.C,R110*%
X105041190Y-109040000D03*
X110966190Y-109040000D03*
%TD*%
%TO.C,R48*%
X71047632Y-80440000D03*
X76972632Y-80440000D03*
%TD*%
%TO.C,R81*%
X93724520Y-49990000D03*
X99649520Y-49990000D03*
%TD*%
%TO.C,R145*%
X133378108Y-91950000D03*
X127453108Y-91950000D03*
%TD*%
%TO.C,R123*%
X115982864Y-74300000D03*
X121907864Y-74300000D03*
%TD*%
%TO.C,R77*%
X99649520Y-26180000D03*
X93724520Y-26180000D03*
%TD*%
%TO.C,R7*%
X49075000Y-61770000D03*
X55000000Y-61770000D03*
%TD*%
%TO.C,R34*%
X60084530Y-109040000D03*
X66009530Y-109040000D03*
%TD*%
%TO.C,R65*%
X82087519Y-68160000D03*
X88012519Y-68160000D03*
%TD*%
%TO.C,R103*%
X104835835Y-68160000D03*
X110760835Y-68160000D03*
%TD*%
%TO.C,R125*%
X115982864Y-86330000D03*
X121907864Y-86330000D03*
%TD*%
%TO.C,R11*%
X49075000Y-86330000D03*
X55000000Y-86330000D03*
%TD*%
%TO.C,R18*%
X49075000Y-126540000D03*
X55000000Y-126540000D03*
%TD*%
%TO.C,R115*%
X121907864Y-26180000D03*
X115982864Y-26180000D03*
%TD*%
%TO.C,R102*%
X104835835Y-61770000D03*
X110760835Y-61770000D03*
%TD*%
%TO.C,R8*%
X49075000Y-68160000D03*
X55000000Y-68160000D03*
%TD*%
%TO.C,R56*%
X71129774Y-126540000D03*
X77054774Y-126540000D03*
%TD*%
%TO.C,R55*%
X71129774Y-120760000D03*
X77054774Y-120760000D03*
%TD*%
%TO.C,R69*%
X82210732Y-91950000D03*
X88135732Y-91950000D03*
%TD*%
%TO.C,R87*%
X93724520Y-86330000D03*
X99649520Y-86330000D03*
%TD*%
%TO.C,R109*%
X105041190Y-103290000D03*
X110966190Y-103290000D03*
%TD*%
%TO.C,R96*%
X110760835Y-26180000D03*
X104835835Y-26180000D03*
%TD*%
%TO.C,R107*%
X105041190Y-91950000D03*
X110966190Y-91950000D03*
%TD*%
%TO.C,R127*%
X116229290Y-97670000D03*
X122154290Y-97670000D03*
%TD*%
M02*
