M48
; DRILL file {KiCad 8.0.6} date 2024-12-19T08:47:46+0800
; FORMAT={-:-/ absolute / inch / decimal}
; #@! TF.CreationDate,2024-12-19T08:47:46+08:00
; #@! TF.GenerationSoftware,Kicad,Pcbnew,8.0.6
; #@! TF.FileFunction,Plated,1,2,PTH
FMAT,2
INCH
; #@! TA.AperFunction,Plated,PTH,ViaDrill
T1C0.0394
; #@! TA.AperFunction,Plated,PTH,ComponentDrill
T2C0.1693
%
G90
G05
T1
X2.0487Y-1.0307
X2.0487Y-1.2626
X2.0487Y-1.4945
X2.0487Y-1.7362
X2.0487Y-1.9681
X2.0487Y-2.2
X2.0487Y-2.4319
X2.0487Y-2.6835
X2.0487Y-2.9252
X2.0487Y-3.1669
X2.0487Y-3.3988
X2.0487Y-3.6201
X2.0487Y-3.8453
X2.0487Y-4.0665
X2.0487Y-4.2929
X2.0487Y-4.5193
X2.0487Y-4.7543
X2.0487Y-4.9819
X2.0487Y-5.2083
X2.4812Y-1.0307
X2.4812Y-1.2626
X2.4812Y-1.4945
X2.4812Y-1.7362
X2.4812Y-1.9681
X2.4812Y-2.2
X2.4812Y-2.4319
X2.4812Y-2.6835
X2.4812Y-2.9252
X2.4812Y-3.1669
X2.4812Y-3.3988
X2.4812Y-3.6201
X2.4812Y-3.8453
X2.4812Y-4.0665
X2.4812Y-4.2929
X2.4812Y-4.5193
X2.4812Y-4.7543
X2.4812Y-4.9819
X2.4812Y-5.2083
X2.9101Y-1.0307
X2.9101Y-1.2626
X2.9101Y-1.4945
X2.9101Y-1.7362
X2.9101Y-1.9681
X2.9101Y-2.2
X2.9101Y-2.4319
X2.9101Y-2.6835
X2.9101Y-2.9252
X2.9101Y-3.1669
X2.9101Y-3.3988
X2.9101Y-3.6201
X2.9101Y-3.8453
X2.9101Y-4.0665
X2.9101Y-4.2929
X2.9101Y-4.5193
X2.9101Y-4.7543
X2.9101Y-4.9819
X2.9101Y-5.2083
X3.3454Y-1.0307
X3.3454Y-1.2626
X3.3454Y-1.4945
X3.3454Y-1.7362
X3.3454Y-1.9681
X3.3454Y-2.2
X3.3454Y-2.4319
X3.3454Y-2.6835
X3.3454Y-2.9252
X3.3454Y-3.1669
X3.3454Y-3.3988
X3.3454Y-3.6201
X3.3454Y-3.8453
X3.3454Y-4.0665
X3.3454Y-4.2929
X3.3454Y-4.5193
X3.3454Y-4.7543
X3.3454Y-4.9819
X3.3454Y-5.2083
X3.8092Y-1.0307
X3.8092Y-1.2626
X3.8092Y-1.4945
X3.8092Y-1.7362
X3.8092Y-1.9681
X3.8092Y-2.2
X3.8092Y-2.4319
X3.8092Y-2.6835
X3.8092Y-2.9252
X3.8092Y-3.1669
X3.8092Y-3.3988
X3.8092Y-3.6201
X3.8092Y-3.8453
X3.8092Y-4.0665
X3.8092Y-4.2929
X3.8092Y-4.5193
X3.8092Y-4.7543
X3.8092Y-4.9819
X3.8092Y-5.2083
X4.2474Y-1.0307
X4.2474Y-1.2626
X4.2474Y-1.4945
X4.2474Y-1.7362
X4.2474Y-1.9681
X4.2474Y-2.2
X4.2474Y-2.4319
X4.2474Y-2.6835
X4.2474Y-2.9252
X4.2474Y-3.1669
X4.2474Y-3.3988
X4.2474Y-3.6201
X4.2474Y-3.8453
X4.2474Y-4.0665
X4.2474Y-4.2929
X4.2474Y-4.5193
X4.2474Y-4.7543
X4.2474Y-4.9819
X4.2474Y-5.2083
X4.6819Y-1.0307
X4.6819Y-1.2626
X4.6819Y-1.4945
X4.6819Y-1.7362
X4.6819Y-1.9681
X4.6819Y-2.2
X4.6819Y-2.4319
X4.6819Y-2.6835
X4.6819Y-2.9252
X4.6819Y-3.1669
X4.6819Y-3.3988
X4.6819Y-3.6201
X4.6819Y-3.8453
X4.6819Y-4.0665
X4.6819Y-4.2929
X4.6819Y-4.5193
X4.6819Y-4.7543
X4.6819Y-4.9819
X4.6819Y-5.2083
X5.1279Y-1.0307
X5.1279Y-1.2626
X5.1279Y-1.4945
X5.1279Y-1.7362
X5.1279Y-1.9681
X5.1279Y-2.2
X5.1279Y-2.4319
X5.1279Y-2.6835
X5.1279Y-2.9252
X5.1279Y-3.1669
X5.1279Y-3.3988
X5.1279Y-3.6201
X5.1279Y-3.8453
X5.1279Y-4.0665
X5.1279Y-4.2929
X5.1279Y-4.5193
X5.1279Y-4.7543
X5.1279Y-4.9819
X5.1279Y-5.2083
T2
X2.4771Y-5.7552
X2.9671Y-5.7502
X4.1871Y-5.7602
X4.6444Y-5.7552
M30
